<svg width="400" height="400" viewBox="0 0 400 400" fill="none" xmlns="http://www.w3.org/2000/svg">
<path d="M200 364.568C288.366 364.568 360 292.934 360 204.568C360 116.202 288.366 44.568 200 44.568C111.634 44.568 40 116.202 40 204.568C40 292.934 111.634 364.568 200 364.568Z" fill="#D1E0FF"/>
<path d="M197.484 337.644C268.066 337.644 325.284 334.068 325.284 329.656C325.284 325.244 268.066 321.668 197.484 321.668C126.902 321.668 69.684 325.244 69.684 329.656C69.684 334.068 126.902 337.644 197.484 337.644Z" fill="#84ADFF"/>
<path d="M176.184 177.892C176.184 164.475 170.854 151.608 161.368 142.121C151.88 132.634 139.013 127.304 125.596 127.304C112.18 127.304 99.3124 132.634 89.8252 142.121C80.338 151.608 75.0084 164.475 75.0084 177.892V185.892H88.3204V225.828H157.52L157.544 185.892H176.16L176.184 177.892Z" fill="white"/>
<path d="M176.184 177.892C176.184 164.475 170.854 151.608 161.368 142.121C151.88 132.634 139.013 127.304 125.596 127.304C112.18 127.304 99.3124 132.634 89.8252 142.121C80.338 151.608 75.0084 164.475 75.0084 177.892V185.892H88.3204V225.828H157.52L157.544 185.892H176.16L176.184 177.892Z" stroke="#101828" stroke-width="4" stroke-linecap="round" stroke-linejoin="round"/>
<path d="M137.693 128.8C136.821 128.587 136.046 128.088 135.493 127.382C134.94 126.676 134.639 125.805 134.641 124.908V110.628H111.481V126.392C111.479 127.22 111.22 128.028 110.74 128.702C110.26 129.377 109.582 129.887 108.801 130.16C108.073 130.427 107.353 130.693 106.641 130.96L122.937 156.56L139.817 130.04L140.193 129.452C139.366 129.222 138.533 129.005 137.693 128.8Z" fill="white" stroke="#101828" stroke-width="4" stroke-linecap="round" stroke-linejoin="round"/>
<path d="M122.932 48.752C127.128 48.752 131.283 49.5784 135.16 51.184C139.036 52.79 142.559 55.1436 145.526 58.1104C148.493 61.0776 150.846 64.6 152.452 68.4764C154.058 72.3532 154.884 76.508 154.884 80.704V84.964C156.435 85.2572 157.827 86.1028 158.802 87.3436C159.777 88.5848 160.27 90.1372 160.187 91.7136C160.105 93.2896 159.455 94.7824 158.356 95.9156C157.258 97.0488 155.785 97.7452 154.212 97.876C152.595 105.613 148.168 112.476 141.785 117.138C135.403 121.801 127.519 123.933 119.657 123.122C111.795 122.31 104.512 118.614 99.2164 112.746C93.9208 106.878 90.9876 99.256 90.9844 91.352V80.704C90.984 76.508 91.81 72.3532 93.4152 68.4768C95.0204 64.6 97.3736 61.0776 100.34 58.1108C103.307 55.1436 106.829 52.79 110.706 51.1844C114.582 49.5784 118.736 48.752 122.932 48.752Z" fill="white" stroke="#101828" stroke-width="4" stroke-linecap="round" stroke-linejoin="round"/>
<path d="M88.3204 225.816V308.58C89.2008 308.432 90.0916 308.357 90.9844 308.356H112.284L114.4 258.06C114.468 255.838 115.399 253.73 116.994 252.182C118.59 250.635 120.726 249.77 122.948 249.77C125.171 249.77 127.307 250.635 128.902 252.182C130.498 253.73 131.428 255.838 131.496 258.06L133.096 308.668C134.137 308.46 135.195 308.356 136.256 308.356H157.556V225.816H88.3204Z" fill="#84ADFF"/>
<path d="M88.3204 225.816V308.58C89.2008 308.432 90.0916 308.357 90.9844 308.356H112.284L114.4 258.06C114.468 255.838 115.399 253.73 116.994 252.182C118.59 250.635 120.726 249.77 122.948 249.77C125.171 249.77 127.307 250.635 128.902 252.182C130.498 253.73 131.428 255.838 131.496 258.06L133.096 308.668C134.137 308.46 135.195 308.356 136.256 308.356H157.556V225.816H88.3204Z" stroke="#101828" stroke-width="4" stroke-linecap="round" stroke-linejoin="round"/>
<path d="M126.928 80.704C126.137 80.704 125.363 80.9388 124.706 81.3784C124.048 81.8176 123.535 82.4424 123.232 83.1732C122.93 83.9044 122.85 84.7084 123.004 85.4844C123.159 86.2604 123.54 86.9732 124.099 87.5324C124.659 88.092 125.372 88.4728 126.147 88.6272C126.923 88.7816 127.728 88.7024 128.458 88.3996C129.189 88.0968 129.814 87.584 130.254 86.9264C130.693 86.2684 130.928 85.4952 130.928 84.704C130.928 83.6432 130.506 82.626 129.756 81.8756C129.006 81.1256 127.989 80.704 126.928 80.704Z" fill="#101828"/>
<path d="M105.628 80.704C104.837 80.704 104.064 80.9388 103.406 81.3784C102.748 81.8176 102.235 82.4424 101.932 83.1732C101.63 83.9044 101.55 84.7084 101.705 85.4844C101.859 86.2604 102.24 86.9732 102.8 87.5324C103.359 88.092 104.072 88.4728 104.848 88.6272C105.624 88.7816 106.428 88.7024 107.159 88.3996C107.89 88.0968 108.514 87.584 108.954 86.9264C109.393 86.2684 109.628 85.4952 109.628 84.704C109.628 83.6432 109.206 82.626 108.456 81.8756C107.706 81.1256 106.689 80.704 105.628 80.704Z" fill="#101828"/>
<path d="M137.576 99.34C139.781 99.34 141.568 97.5528 141.568 95.348C141.568 93.1432 139.781 91.356 137.576 91.356C135.371 91.356 133.584 93.1432 133.584 95.348C133.584 97.5528 135.371 99.34 137.576 99.34Z" fill="#84ADFF"/>
<path d="M125.6 104.908C123.234 106.485 120.455 107.327 117.612 107.327C114.769 107.327 111.99 106.485 109.624 104.908" stroke="#101828" stroke-width="4" stroke-linecap="round" stroke-linejoin="round"/>
<path d="M88.3204 72.716C88.3204 63.5364 91.9668 54.7328 98.458 48.2416C104.949 41.7508 113.753 38.104 122.932 38.104C132.112 38.104 140.916 41.7508 147.407 48.2416C153.898 54.7328 157.544 63.5364 157.544 72.716V83.364C153.413 82.328 149.578 80.346 146.344 77.574C143.11 74.8024 140.564 71.3164 138.908 67.392C124 77.432 104.296 75.38 88.3204 72.716Z" fill="white"/>
<path d="M88.3204 72.716C88.3204 63.5364 91.9668 54.7328 98.458 48.2416C104.949 41.7508 113.753 38.104 122.932 38.104C132.112 38.104 140.916 41.7508 147.407 48.2416C153.898 54.7328 157.544 63.5364 157.544 72.716V83.364C153.413 82.328 149.578 80.346 146.344 77.574C143.11 74.8024 140.564 71.3164 138.908 67.392C124 77.432 104.296 75.38 88.3204 72.716Z" stroke="#101828" stroke-width="4" stroke-linecap="round" stroke-linejoin="round"/>
<path d="M144.232 62.064C142.877 64.2148 141.058 66.0352 138.908 67.392" stroke="#101828" stroke-width="4" stroke-linecap="round" stroke-linejoin="round"/>
<path d="M157.544 185.88V169.904" stroke="#101828" stroke-width="4" stroke-linecap="round" stroke-linejoin="round"/>
<path d="M88.3204 185.88V169.904" stroke="#101828" stroke-width="4" stroke-linecap="round" stroke-linejoin="round"/>
<path d="M75.0084 324.332C75.0076 322.234 75.4208 320.156 76.2232 318.218C77.026 316.279 78.2028 314.518 79.6864 313.034C81.17 311.55 82.9312 310.374 84.87 309.571C86.8084 308.768 88.886 308.356 90.9844 308.356H112.284V319.004C112.284 320.417 111.723 321.772 110.724 322.772C109.724 323.771 108.369 324.332 106.956 324.332H75.0084Z" fill="white" stroke="#101828" stroke-width="4" stroke-linecap="round" stroke-linejoin="round"/>
<path d="M120.272 324.332C120.272 322.234 120.685 320.157 121.487 318.218C122.29 316.28 123.466 314.519 124.949 313.036C126.432 311.552 128.193 310.375 130.131 309.572C132.069 308.769 134.147 308.356 136.244 308.356H157.544V319.004C157.545 319.704 157.408 320.396 157.14 321.043C156.873 321.689 156.481 322.276 155.986 322.771C155.492 323.266 154.905 323.658 154.259 323.926C153.612 324.194 152.92 324.332 152.22 324.332H120.272Z" fill="white" stroke="#101828" stroke-width="4" stroke-linecap="round" stroke-linejoin="round"/>
<path d="M146.149 131.6C149.392 135.761 151.486 140.7 152.221 145.924C141.568 146.242 131.301 149.977 122.933 156.576" stroke="#101828" stroke-width="4" stroke-linecap="round" stroke-linejoin="round"/>
<path d="M122.932 156.592C114.564 149.993 104.296 146.258 93.644 145.94C94.098 142.571 95.1432 139.309 96.732 136.304" stroke="#101828" stroke-width="4" stroke-linecap="round" stroke-linejoin="round"/>
<path d="M122.933 156.592V225.816" stroke="#101828" stroke-width="4" stroke-linecap="round" stroke-linejoin="round"/>
<path d="M126.06 216.088L89.116 222.548C87.8288 222.774 86.5032 222.519 85.3924 221.831C84.2812 221.143 83.4624 220.07 83.092 218.816L69.124 171.724C68.7512 170.463 68.8576 169.109 69.4232 167.922C69.9892 166.736 70.974 165.8 72.188 165.296L106.812 150.896C107.502 150.609 108.245 150.47 108.992 150.489C109.739 150.508 110.474 150.684 111.148 151.005C111.823 151.326 112.422 151.786 112.907 152.355C113.392 152.923 113.752 153.587 113.964 154.304L130.248 209.348C130.458 210.067 130.514 210.822 130.412 211.564C130.311 212.305 130.054 213.017 129.659 213.653C129.264 214.289 128.739 214.835 128.119 215.254C127.499 215.674 126.798 215.958 126.06 216.088Z" fill="white"/>
<path d="M126.06 216.088L89.116 222.548C87.8288 222.774 86.5032 222.519 85.3924 221.831C84.2812 221.143 83.4624 220.07 83.092 218.816L69.124 171.724C68.7512 170.463 68.8576 169.109 69.4232 167.922C69.9892 166.736 70.974 165.8 72.188 165.296L106.812 150.896C107.502 150.609 108.245 150.47 108.992 150.489C109.739 150.508 110.474 150.684 111.148 151.005C111.823 151.326 112.422 151.786 112.907 152.355C113.392 152.923 113.752 153.587 113.964 154.304L130.248 209.348C130.458 210.067 130.514 210.822 130.412 211.564C130.311 212.305 130.054 213.017 129.659 213.653C129.264 214.289 128.739 214.835 128.119 215.254C127.499 215.674 126.798 215.958 126.06 216.088Z" stroke="#101828" stroke-width="4" stroke-linecap="round" stroke-linejoin="round"/>
<path d="M157.544 185.88V190.14C157.544 193.51 156.544 196.804 154.671 199.606C152.799 202.408 150.138 204.591 147.024 205.881C143.911 207.17 140.485 207.508 137.18 206.85C133.875 206.193 130.839 204.57 128.456 202.188L124.196 197.928C122.449 196.181 120.079 195.199 117.608 195.199C115.137 195.199 112.767 196.181 111.02 197.928C109.273 199.675 108.291 202.045 108.291 204.516C108.291 206.987 109.273 209.357 111.02 211.104L115.28 215.364C120.269 220.354 126.626 223.752 133.546 225.128C140.466 226.506 147.64 225.799 154.159 223.099C160.678 220.4 166.25 215.827 170.17 209.96C174.091 204.094 176.184 197.196 176.184 190.14V185.88H157.544Z" fill="white" stroke="#101828" stroke-width="4" stroke-linecap="round" stroke-linejoin="round"/>
<path d="M81.4364 204.26C82.638 203.981 83.7724 203.466 84.7732 202.744C85.7744 202.023 86.6224 201.11 87.268 200.059C87.9136 199.008 88.344 197.839 88.5344 196.62C88.7248 195.401 88.6712 194.156 88.3768 192.958C88.0824 191.76 87.5528 190.632 86.8192 189.64C86.0856 188.648 85.1624 187.812 84.1028 187.179C83.0436 186.547 81.8692 186.131 80.6476 185.956C79.4264 185.781 78.1824 185.85 76.9884 186.16L73.1124 187.112C71.7408 187.449 70.5596 188.316 69.8276 189.524C69.0956 190.732 68.8728 192.18 69.2084 193.552L71.1124 201.312C71.45 202.684 72.3184 203.865 73.5268 204.596C74.7352 205.327 76.1844 205.549 77.5564 205.212L81.4364 204.26Z" fill="white" stroke="#101828" stroke-width="4" stroke-linecap="round" stroke-linejoin="round"/>
<path d="M82.996 169.904C82.4692 169.903 81.9536 170.059 81.5148 170.351C81.0764 170.643 80.7344 171.059 80.532 171.546C80.33 172.032 80.2764 172.568 80.3788 173.085C80.4812 173.602 80.7344 174.077 81.1068 174.45C81.4792 174.823 81.954 175.078 82.4708 175.18C82.988 175.284 83.5236 175.231 84.0108 175.03C84.4976 174.828 84.914 174.487 85.2068 174.048C85.4996 173.61 85.656 173.095 85.656 172.568C85.6568 172.218 85.5884 171.872 85.4548 171.549C85.3212 171.226 85.1256 170.932 84.8784 170.684C84.6312 170.437 84.338 170.241 84.0148 170.107C83.692 169.973 83.3456 169.904 82.996 169.904Z" fill="#101828"/>
<path d="M319.961 172.568C319.961 160.563 315.192 149.05 306.703 140.562C298.214 132.073 286.701 127.304 274.697 127.304C262.692 127.304 251.179 132.073 242.69 140.562C234.202 149.05 229.433 160.563 229.433 172.568V181.884H248.081V225.816H306.649V188.54H319.961V172.568Z" fill="white"/>
<path d="M319.961 172.568C319.961 160.563 315.192 149.05 306.703 140.562C298.214 132.073 286.701 127.304 274.697 127.304C262.692 127.304 251.179 132.073 242.69 140.562C234.202 149.05 229.433 160.563 229.433 172.568V181.884H248.081V225.816H306.649V188.54H319.961V172.568Z" stroke="#101828" stroke-width="4" stroke-linecap="round" stroke-linejoin="round"/>
<path d="M296.936 308.356L298.66 279.068H256.06L257.784 308.356H296.936Z" fill="white"/>
<path d="M296.936 308.356L298.66 279.068H256.06L257.784 308.356H296.936Z" stroke="#101828" stroke-width="4" stroke-linecap="round" stroke-linejoin="round"/>
<path d="M277.36 279.068V308.356" stroke="#101828" stroke-width="4" stroke-linecap="round" stroke-linejoin="round"/>
<path d="M298.724 279.068C300.087 279.068 301.398 278.545 302.387 277.608C303.376 276.67 303.968 275.389 304.04 274.028L306.648 225.816H248.072L250.676 274.028C250.75 275.39 251.343 276.672 252.334 277.609C253.324 278.547 254.636 279.069 256 279.068H298.724Z" fill="#84ADFF"/>
<path d="M298.724 279.068C300.087 279.068 301.398 278.545 302.387 277.608C303.376 276.67 303.968 275.389 304.04 274.028L306.648 225.816H248.072L250.676 274.028C250.75 275.39 251.343 276.672 252.334 277.609C253.324 278.547 254.636 279.069 256 279.068H298.724Z" stroke="#101828" stroke-width="4" stroke-linecap="round" stroke-linejoin="round"/>
<path d="M314.636 324.332C314.636 320.095 312.953 316.031 309.957 313.035C306.961 310.039 302.898 308.356 298.66 308.356H277.36V324.332H314.636Z" fill="#84ADFF" stroke="#101828" stroke-width="4" stroke-linecap="round" stroke-linejoin="round"/>
<path d="M294.997 324.332C294.997 320.095 293.314 316.031 290.318 313.035C287.321 310.039 283.258 308.356 279.021 308.356H257.721V319.004C257.72 319.704 257.858 320.396 258.125 321.043C258.392 321.689 258.784 322.276 259.279 322.771C259.773 323.266 260.36 323.658 261.006 323.926C261.652 324.194 262.345 324.332 263.045 324.332H294.997Z" fill="#84ADFF" stroke="#101828" stroke-width="4" stroke-linecap="round" stroke-linejoin="round"/>
<path d="M248.072 169.904V183.216" stroke="#101828" stroke-width="4" stroke-linecap="round" stroke-linejoin="round"/>
<path d="M298.66 145.94L301.324 153.94L277.36 172.58L292.644 131.04C297.821 133.264 302.534 136.438 306.54 140.4L306.648 140.612L298.66 145.94Z" fill="white" stroke="#101828" stroke-width="4" stroke-linecap="round" stroke-linejoin="round"/>
<path d="M253.396 153.928L256.06 145.928L248.06 140.604L252.268 133.256C255.164 131.589 258.234 130.247 261.424 129.256L277.36 172.568L253.396 153.928Z" fill="white" stroke="#101828" stroke-width="4" stroke-linecap="round" stroke-linejoin="round"/>
<path d="M267.568 145.94L277.36 172.568L287.156 145.94H267.568Z" fill="#84ADFF" stroke="#101828" stroke-width="4" stroke-linecap="round" stroke-linejoin="round"/>
<path d="M277.36 172.568V225.816" stroke="#101828" stroke-width="4" stroke-linecap="round" stroke-linejoin="round"/>
<path d="M290.468 217.12L272.892 207.652C271.959 207.149 271.264 206.296 270.96 205.28C270.655 204.264 270.766 203.17 271.268 202.236L304.068 141.296C304.572 140.363 305.425 139.667 306.44 139.363C307.456 139.058 308.551 139.17 309.484 139.672L327.06 149.136L290.468 217.12Z" fill="#84ADFF" stroke="#101828" stroke-width="4" stroke-linecap="round" stroke-linejoin="round"/>
<path d="M314.092 223.792C313.423 225.032 312.289 225.956 310.94 226.362C309.59 226.768 308.134 226.622 306.892 225.956L290.492 217.12L327.1 149.12L343.5 157.952C344.74 158.622 345.663 159.756 346.069 161.105C346.474 162.454 346.329 163.91 345.664 165.152L314.092 223.792Z" fill="#84ADFF" stroke="#101828" stroke-width="4" stroke-linecap="round" stroke-linejoin="round"/>
<path d="M309.6 152.352C308.624 152.352 307.682 152.708 306.951 153.354C306.22 154 305.75 154.892 305.63 155.86C305.51 156.828 305.748 157.807 306.3 158.612C306.851 159.417 307.678 159.993 308.624 160.231C309.57 160.469 310.57 160.353 311.437 159.905C312.304 159.456 312.977 158.707 313.33 157.797C313.682 156.887 313.69 155.88 313.351 154.964C313.013 154.049 312.352 153.29 311.492 152.828C310.91 152.516 310.26 152.352 309.6 152.352Z" fill="#101828"/>
<path d="M330.688 163.712C329.713 163.71 328.77 164.065 328.038 164.71C327.305 165.354 326.834 166.244 326.712 167.212C326.59 168.18 326.826 169.16 327.376 169.966C327.926 170.772 328.751 171.349 329.697 171.589C330.643 171.829 331.644 171.715 332.511 171.268C333.379 170.822 334.053 170.074 334.408 169.165C334.762 168.256 334.772 167.248 334.435 166.332C334.099 165.417 333.439 164.655 332.58 164.192C331.999 163.878 331.349 163.713 330.688 163.712Z" fill="#101828"/>
<path d="M276.944 191.692L298.044 203.052" stroke="#101828" stroke-width="4" stroke-linecap="round" stroke-linejoin="round"/>
<path d="M298.045 203.052L319.145 214.412" stroke="#101828" stroke-width="4" stroke-linecap="round" stroke-linejoin="round"/>
<path d="M330.32 178.936C328.132 177.858 325.608 177.682 323.29 178.444C320.973 179.207 319.047 180.848 317.926 183.015C316.805 185.181 316.578 187.701 317.294 190.033C318.01 192.366 319.612 194.324 321.756 195.488L325.304 197.324C326.559 197.972 328.02 198.095 329.365 197.667C330.71 197.239 331.831 196.294 332.48 195.04L336.152 187.948C336.474 187.327 336.67 186.648 336.729 185.952C336.788 185.255 336.709 184.553 336.497 183.887C336.285 183.22 335.944 182.602 335.492 182.068C335.042 181.534 334.49 181.093 333.868 180.772L330.32 178.936Z" fill="white" stroke="#101828" stroke-width="4" stroke-linecap="round" stroke-linejoin="round"/>
<path d="M248.073 181.884V189.884C248.074 191.649 248.775 193.341 250.023 194.589C251.271 195.837 252.964 196.539 254.729 196.54H289.341C291.812 196.54 294.183 197.522 295.931 199.27C297.679 201.017 298.661 203.388 298.661 205.86C298.661 208.332 297.679 210.702 295.931 212.45C294.183 214.198 291.812 215.18 289.341 215.18H254.729C248.022 215.171 241.593 212.504 236.851 207.762C232.109 203.019 229.441 196.59 229.433 189.884V181.884H248.073Z" fill="white" stroke="#101828" stroke-width="4" stroke-linecap="round" stroke-linejoin="round"/>
<path d="M289.644 129.88C288.85 129.612 288.161 129.101 287.673 128.42C287.185 127.739 286.923 126.922 286.924 126.084V116.652H267.368V124.628C267.367 125.531 267.061 126.407 266.499 127.114C265.937 127.82 265.152 128.316 264.272 128.52C263.32 128.741 262.378 128.993 261.444 129.276L267.576 145.94H287.176L292.664 131.028C291.664 130.604 290.664 130.224 289.644 129.88Z" fill="white" stroke="#101828" stroke-width="4" stroke-linecap="round" stroke-linejoin="round"/>
<path d="M242.748 67.384C251.572 67.384 258.724 60.2312 258.724 51.408C258.724 42.5844 251.572 35.4319 242.748 35.4319C233.925 35.4319 226.772 42.5844 226.772 51.408C226.772 60.2312 233.925 67.384 242.748 67.384Z" fill="white"/>
<path d="M242.748 67.384C251.572 67.384 258.724 60.2312 258.724 51.408C258.724 42.5844 251.572 35.4319 242.748 35.4319C233.925 35.4319 226.772 42.5844 226.772 51.408C226.772 60.2312 233.925 67.384 242.748 67.384Z" stroke="#101828" stroke-width="4" stroke-linecap="round" stroke-linejoin="round"/>
<path d="M277.36 48.748C273.165 48.7472 269.01 49.5732 265.133 51.1784C261.257 52.784 257.734 55.1372 254.767 58.1036C251.8 61.0704 249.446 64.5924 247.841 68.4688C246.235 72.3452 245.408 76.5 245.408 80.696V84.96C243.858 85.2532 242.466 86.0984 241.491 87.3396C240.516 88.5808 240.024 90.1332 240.106 91.7092C240.188 93.2856 240.838 94.7784 241.937 95.9116C243.036 97.0448 244.508 97.7412 246.08 97.872C247.698 105.609 252.125 112.472 258.508 117.134C264.89 121.797 272.774 123.928 280.636 123.117C288.498 122.306 295.781 118.61 301.076 112.742C306.372 106.874 309.305 99.252 309.308 91.348V80.696C309.309 76.5 308.483 72.3456 306.878 68.4692C305.272 64.5928 302.919 61.0708 299.952 58.104C296.986 55.1372 293.464 52.784 289.587 51.1788C285.711 49.5732 281.556 48.7472 277.36 48.748Z" fill="white" stroke="#101828" stroke-width="4" stroke-linecap="round" stroke-linejoin="round"/>
<path d="M262.717 99.332C264.921 99.332 266.709 97.5448 266.709 95.34C266.709 93.1352 264.921 91.348 262.717 91.348C260.512 91.348 258.725 93.1352 258.725 95.34C258.725 97.5448 260.512 99.332 262.717 99.332Z" fill="#84ADFF"/>
<path d="M274.696 104.9C277.062 106.477 279.841 107.318 282.684 107.318C285.527 107.318 288.307 106.477 290.672 104.9" stroke="#101828" stroke-width="4" stroke-linecap="round" stroke-linejoin="round"/>
<path d="M245.408 84.96C253.408 78.036 256.06 62.06 256.06 62.06C256.06 62.06 274.696 75.372 309.308 80.696V89.148C311.565 83.4652 312.388 77.3144 311.706 71.238C311.024 65.1616 308.857 59.3468 305.396 54.306C301.935 49.2652 297.287 45.1532 291.862 42.3336C286.436 39.5139 280.4 38.0728 274.286 38.1373C268.172 38.2019 262.167 39.7702 256.802 42.7036C251.438 45.6376 246.877 49.8464 243.524 54.9588C240.17 60.0716 238.126 65.9312 237.572 72.0208C237.018 78.11 237.972 84.242 240.348 89.876C240.636 88.6596 241.264 87.5508 242.161 86.68C243.057 85.8088 244.184 85.2124 245.408 84.96Z" fill="white"/>
<path d="M245.408 84.96C253.408 78.036 256.06 62.06 256.06 62.06C256.06 62.06 274.696 75.372 309.308 80.696V89.148C311.565 83.4652 312.388 77.3144 311.706 71.238C311.024 65.1616 308.857 59.3468 305.396 54.306C301.935 49.2652 297.287 45.1532 291.862 42.3336C286.436 39.5139 280.4 38.0728 274.286 38.1373C268.172 38.2019 262.167 39.7702 256.802 42.7036C251.438 45.6376 246.877 49.8464 243.524 54.9588C240.17 60.0716 238.126 65.9312 237.572 72.0208C237.018 78.11 237.972 84.242 240.348 89.876C240.636 88.6596 241.264 87.5508 242.161 86.68C243.057 85.8088 244.184 85.2124 245.408 84.96Z" stroke="#101828" stroke-width="4" stroke-linecap="round" stroke-linejoin="round"/>
<path d="M246.704 121.66C240.372 112.896 239.688 103.364 239.688 94.06H165.256C165.256 103.44 164.568 112.904 158.236 121.66C157.694 122.468 157.383 123.408 157.336 124.38C157.29 125.351 157.509 126.317 157.971 127.173C158.432 128.029 159.119 128.743 159.957 129.238C160.794 129.732 161.751 129.989 162.724 129.98C173.216 129.98 193.364 130.28 202.472 123.296C211.58 130.28 231.728 129.98 242.22 129.98C243.192 129.99 244.15 129.733 244.987 129.239C245.825 128.744 246.512 128.03 246.973 127.174C247.435 126.317 247.654 125.351 247.606 124.379C247.559 123.407 247.246 122.467 246.704 121.66Z" fill="white" stroke="#101828" stroke-width="4" stroke-linecap="round" stroke-linejoin="round"/>
<path d="M173.088 225.768L183.74 324.332H221.016L231.664 225.768H173.088Z" fill="white" stroke="#101828" stroke-width="4" stroke-linecap="round" stroke-linejoin="round"/>
<path d="M202.376 247.116V324.332" stroke="#101828" stroke-width="4" stroke-linecap="round" stroke-linejoin="round"/>
<path d="M173.088 225.768L183.74 324.332H221.016L231.664 225.768H173.088Z" stroke="#101828" stroke-width="4" stroke-linecap="round" stroke-linejoin="round"/>
<path d="M202.472 324.332C202.472 320.095 200.789 316.031 197.792 313.035C194.796 310.039 190.733 308.356 186.496 308.356H183.832C181.026 308.356 178.27 309.095 175.841 310.5C173.412 311.904 171.396 313.924 169.996 316.356C169.524 317.166 169.274 318.086 169.272 319.023C169.269 319.96 169.514 320.881 169.982 321.693C170.451 322.505 171.125 323.179 171.937 323.646C172.749 324.114 173.671 324.359 174.608 324.356L202.472 324.332Z" fill="#84ADFF" stroke="#101828" stroke-width="4" stroke-linecap="round" stroke-linejoin="round"/>
<path d="M202.472 324.332C202.472 320.095 204.155 316.031 207.151 313.035C210.147 310.039 214.21 308.356 218.448 308.356H221.108C223.914 308.356 226.671 309.095 229.101 310.499C231.531 311.904 233.547 313.924 234.948 316.356C235.418 317.166 235.667 318.086 235.669 319.022C235.671 319.959 235.425 320.88 234.958 321.691C234.49 322.502 233.816 323.176 233.004 323.644C232.193 324.112 231.272 324.358 230.336 324.356L202.472 324.332Z" fill="#84ADFF" stroke="#101828" stroke-width="4" stroke-linecap="round" stroke-linejoin="round"/>
<path d="M173.088 225.768L175.844 273.744H229.096L231.664 225.768L231.76 217.828H173.184L173.088 225.768Z" fill="#84ADFF" stroke="#101828" stroke-width="4" stroke-linecap="round" stroke-linejoin="round"/>
<path d="M250.4 175.228C250.284 162.593 245.184 150.514 236.209 141.621C227.234 132.727 215.109 127.738 202.474 127.738C189.838 127.738 177.714 132.727 168.739 141.621C159.764 150.514 154.663 162.593 154.548 175.228V188.54H173.2V217.828H231.76V188.54H250.4V175.228Z" fill="white" stroke="#101828" stroke-width="4" stroke-linecap="round" stroke-linejoin="round"/>
<path d="M212.351 128.824L202.471 142.824L192.567 128.824L192.587 113.532H212.375L212.351 128.824Z" fill="white" stroke="#101828" stroke-width="4" stroke-linecap="round" stroke-linejoin="round"/>
<path d="M202.472 142.824L193.1 152.196C192.636 152.66 192.065 153.002 191.438 153.193C190.81 153.384 190.145 153.418 189.501 153.292C188.858 153.165 188.255 152.882 187.746 152.468C187.237 152.054 186.838 151.52 186.584 150.916L179.196 133.316" stroke="#101828" stroke-width="4" stroke-linecap="round" stroke-linejoin="round"/>
<path d="M202.472 142.824L211.844 152.196C212.308 152.66 212.879 153.002 213.506 153.193C214.134 153.384 214.799 153.418 215.443 153.292C216.086 153.165 216.689 152.882 217.198 152.468C217.707 152.054 218.106 151.52 218.36 150.916L225.748 133.316" stroke="#101828" stroke-width="4" stroke-linecap="round" stroke-linejoin="round"/>
<path d="M173.068 175.244C172.752 172.609 171.782 170.096 170.248 167.932C168.624 165.314 167.791 162.283 167.848 159.204" stroke="#101828" stroke-width="4" stroke-linecap="round" stroke-linejoin="round"/>
<path d="M202.472 142.824V195.316" stroke="#101828" stroke-width="4" stroke-linecap="round" stroke-linejoin="round"/>
<path d="M231.78 175.232C232.093 172.604 233.055 170.095 234.58 167.932C236.204 165.314 237.037 162.284 236.98 159.204" stroke="#101828" stroke-width="4" stroke-linecap="round" stroke-linejoin="round"/>
<path d="M185.164 217.828H178.508C175.36 217.832 172.242 217.216 169.333 216.014C166.423 214.811 163.78 213.047 161.554 210.821C159.328 208.595 157.562 205.952 156.36 203.043C155.157 200.134 154.54 197.016 154.544 193.868V175.228H173.2V193.868C173.202 195.277 173.761 196.628 174.756 197.627C175.75 198.626 177.099 199.191 178.508 199.2H185.164V217.828Z" fill="white" stroke="#101828" stroke-width="4" stroke-linecap="round" stroke-linejoin="round"/>
<path d="M228.4 195.2C228.411 196.542 228.12 197.87 227.548 199.084C227.179 199.148 226.806 199.184 226.432 199.192H196.832L213.816 187.532C215.215 186.576 216.848 186.02 218.539 185.922C220.23 185.824 221.916 186.189 223.415 186.978C224.915 187.766 226.171 188.948 227.049 190.397C227.928 191.845 228.394 193.506 228.4 195.2Z" fill="white" stroke="#101828" stroke-width="4" stroke-linecap="round" stroke-linejoin="round"/>
<path d="M175.844 208.512C175.841 209.736 176.08 210.949 176.548 212.081C177.016 213.213 177.702 214.241 178.568 215.106C179.434 215.972 180.462 216.658 181.594 217.125C182.726 217.592 183.939 217.831 185.164 217.828H226.436C229.584 217.832 232.701 217.216 235.61 216.014C238.52 214.811 241.163 213.046 243.389 210.821C245.614 208.595 247.379 205.952 248.582 203.042C249.784 200.133 250.4 197.016 250.396 193.868V175.228H231.76V193.868C231.757 195.28 231.195 196.633 230.198 197.632C229.2 198.631 227.848 199.194 226.436 199.2H185.164C183.94 199.197 182.727 199.435 181.595 199.902C180.464 200.369 179.435 201.054 178.569 201.92C177.703 202.785 177.017 203.813 176.549 204.944C176.081 206.075 175.842 207.288 175.844 208.512Z" fill="white" stroke="#101828" stroke-width="4" stroke-linecap="round" stroke-linejoin="round"/>
<path d="M239.688 91.3956C239.674 89.8824 239.137 88.4208 238.168 87.2584C237.199 86.096 235.858 85.3052 234.372 85.0196V80.7636C234.372 72.3032 231.011 64.1896 225.028 58.2072C219.046 52.2248 210.932 48.8636 202.472 48.8636C194.011 48.8636 185.897 52.2248 179.915 58.2072C173.932 64.1896 170.572 72.3032 170.572 80.7636V85.0196C169.021 85.3092 167.628 86.152 166.652 87.3916C165.675 88.6308 165.182 90.1824 165.264 91.758C165.345 93.3336 165.996 94.826 167.095 95.958C168.194 97.0896 169.667 97.784 171.24 97.9116C172.738 105.086 176.661 111.525 182.348 116.147C188.036 120.769 195.141 123.292 202.47 123.292C209.798 123.292 216.904 120.769 222.591 116.147C228.278 111.525 232.201 105.086 233.7 97.9116C235.329 97.7636 236.845 97.0144 237.952 95.81C239.059 94.6052 239.678 93.0316 239.688 91.3956Z" fill="white" stroke="#101828" stroke-width="4" stroke-linecap="round" stroke-linejoin="round"/>
<path d="M185.192 99.3716C187.395 99.3716 189.18 97.5864 189.18 95.3836C189.18 93.1812 187.395 91.3956 185.192 91.3956C182.99 91.3956 181.204 93.1812 181.204 95.3836C181.204 97.5864 182.99 99.3716 185.192 99.3716Z" fill="#84ADFF"/>
<path d="M219.752 99.3716C221.954 99.3716 223.74 97.5864 223.74 95.3836C223.74 93.1812 221.954 91.3956 219.752 91.3956C217.549 91.3956 215.764 93.1812 215.764 95.3836C215.764 97.5864 217.549 99.3716 219.752 99.3716Z" fill="#84ADFF"/>
<path d="M210.448 104.688C208.148 106.414 205.348 107.348 202.472 107.348C199.596 107.348 196.797 106.414 194.496 104.688" stroke="#101828" stroke-width="4" stroke-linecap="round" stroke-linejoin="round"/>
<path d="M190.508 80.7636C189.717 80.7636 188.943 80.9984 188.286 81.4376C187.628 81.8772 187.115 82.502 186.812 83.2328C186.51 83.964 186.43 84.768 186.585 85.544C186.739 86.32 187.12 87.0328 187.679 87.592C188.239 88.1516 188.952 88.5324 189.728 88.6868C190.503 88.8412 191.308 88.762 192.038 88.4592C192.77 88.1564 193.394 87.6436 193.834 86.986C194.273 86.328 194.508 85.5548 194.508 84.7636C194.508 83.7028 194.086 82.6852 193.336 81.9352C192.586 81.1852 191.569 80.7636 190.508 80.7636Z" fill="#101828"/>
<path d="M214.432 80.7636C213.64 80.7636 212.867 80.9984 212.209 81.4376C211.552 81.8772 211.039 82.502 210.736 83.2328C210.433 83.964 210.354 84.768 210.508 85.544C210.663 86.32 211.044 87.0328 211.603 87.592C212.163 88.1516 212.875 88.5324 213.651 88.6868C214.427 88.8412 215.232 88.762 215.962 88.4592C216.693 88.1564 217.318 87.6436 217.758 86.986C218.197 86.328 218.432 85.5548 218.432 84.7636C218.432 83.7028 218.01 82.6852 217.26 81.9352C216.51 81.1852 215.492 80.7636 214.432 80.7636Z" fill="#101828"/>
<path d="M165.256 91.396C171.5 88.884 175.804 77.6 178.352 72.096C179.628 77.116 185.692 79.296 187.676 79.796C189.879 75.734 193.214 72.3992 197.276 70.196C198.528 72.6724 200.334 74.8272 202.554 76.492C204.774 78.1572 207.348 79.2876 210.076 79.796C210.235 77.7828 210.907 75.8436 212.027 74.1632C213.147 72.4828 214.679 71.1172 216.476 70.196C216.476 70.196 226.476 92.356 239.7 91.396V76.776C239.7 66.786 235.821 57.1868 228.882 50.0008C221.942 42.8152 212.484 38.6042 202.5 38.2559C192.516 38.6042 183.058 42.8152 176.118 50.0008C169.179 57.1868 165.3 66.786 165.3 76.776L165.256 91.396Z" fill="white"/>
<path d="M165.256 91.396C171.5 88.884 175.804 77.6 178.352 72.096C179.628 77.116 185.692 79.296 187.676 79.796C189.879 75.734 193.214 72.3992 197.276 70.196C198.528 72.6724 200.334 74.8272 202.554 76.492C204.774 78.1572 207.348 79.2876 210.076 79.796C210.235 77.7828 210.907 75.8436 212.027 74.1632C213.147 72.4828 214.679 71.1172 216.476 70.196C216.476 70.196 226.476 92.356 239.7 91.396V76.776C239.7 66.786 235.821 57.1868 228.882 50.0008C221.942 42.8152 212.484 38.6042 202.5 38.2559C192.516 38.6042 183.058 42.8152 176.118 50.0008C169.179 57.1868 165.3 66.786 165.3 76.776L165.256 91.396Z" stroke="#101828" stroke-width="4" stroke-linecap="round" stroke-linejoin="round"/>
<path d="M298.028 85.356C297.173 84.5032 296.015 84.0248 294.808 84.0248C293.601 84.0248 292.443 84.5032 291.588 85.356" stroke="#101828" stroke-width="4" stroke-linecap="round" stroke-linejoin="round"/>
<path d="M269.092 85.356C269.947 84.5032 271.104 84.0248 272.312 84.0248C273.519 84.0248 274.677 84.5032 275.532 85.356" stroke="#101828" stroke-width="4" stroke-linecap="round" stroke-linejoin="round"/>
</svg>
