<svg width="400" height="400" viewBox="0 0 400 400" fill="none" xmlns="http://www.w3.org/2000/svg">
<path d="M25.48 200C25.48 242.435 42.3371 283.131 72.3429 313.137C102.349 343.143 143.045 360 185.48 360C227.915 360 268.611 343.143 298.617 313.137C328.623 283.131 345.48 242.435 345.48 200C345.48 157.565 328.623 116.869 298.617 86.8629C268.611 56.8571 227.915 40 185.48 40C143.045 40 102.349 56.8571 72.3429 86.8629C42.3371 116.869 25.48 157.565 25.48 200Z" fill="#D1E0FF"/>
<path d="M70.824 91.304H281.7V269.04H70.824V91.304Z" fill="white" stroke="#101828" stroke-width="4" stroke-linecap="round" stroke-linejoin="round"/>
<path d="M281.7 145.528H70.824V102.184C70.8234 100.755 71.1044 99.3407 71.6507 98.0207C72.1971 96.7007 72.9981 95.5012 74.0081 94.4909C75.0181 93.4805 76.2172 92.679 77.537 92.1322C78.8568 91.5854 80.2714 91.304 81.7 91.304H270.82C273.706 91.304 276.473 92.4502 278.513 94.4906C280.554 96.531 281.7 99.2984 281.7 102.184V145.528Z" fill="#84ADFF" stroke="#101828" stroke-width="4" stroke-linecap="round" stroke-linejoin="round"/>
<path d="M70.824 175.656H281.7" stroke="#101828" stroke-width="4" stroke-linecap="round" stroke-linejoin="round"/>
<path d="M70.824 205.78H281.7" stroke="#101828" stroke-width="4" stroke-linecap="round" stroke-linejoin="round"/>
<path d="M70.824 235.904H281.7" stroke="#101828" stroke-width="4" stroke-linecap="round" stroke-linejoin="round"/>
<path d="M113 145.528V269.044" stroke="#101828" stroke-width="4" stroke-linecap="round" stroke-linejoin="round"/>
<path d="M155.172 145.528V269.044" stroke="#101828" stroke-width="4" stroke-linecap="round" stroke-linejoin="round"/>
<path d="M197.348 145.528V269.04" stroke="#101828" stroke-width="4" stroke-linecap="round" stroke-linejoin="round"/>
<path d="M239.524 145.528V269.04" stroke="#101828" stroke-width="4" stroke-linecap="round" stroke-linejoin="round"/>
<path d="M70.824 175.656H113V205.78H70.824V175.656Z" fill="#84ADFF" stroke="#101828" stroke-width="4" stroke-linecap="round" stroke-linejoin="round"/>
<path d="M113 235.904H155.176V269.04H113V235.904Z" fill="#84ADFF" stroke="#101828" stroke-width="4" stroke-linecap="round" stroke-linejoin="round"/>
<path d="M155.172 145.528H197.348V175.652H155.172V145.528Z" fill="#84ADFF" stroke="#101828" stroke-width="4" stroke-linecap="round" stroke-linejoin="round"/>
<path d="M112.328 292.46C112.328 294.799 118.833 297.043 130.411 298.697C141.99 300.351 157.694 301.28 174.068 301.28C190.442 301.28 206.146 300.351 217.725 298.697C229.303 297.043 235.808 294.799 235.808 292.46C235.808 290.121 229.303 287.877 217.725 286.223C206.146 284.569 190.442 283.64 174.068 283.64C157.694 283.64 141.99 284.569 130.411 286.223C118.833 287.877 112.328 290.121 112.328 292.46Z" fill="#84ADFF"/>
<path d="M271.1 204.576V158.704C271.099 155.23 269.719 151.898 267.262 149.441C264.806 146.983 261.474 145.602 258 145.6C254.525 145.6 251.192 146.981 248.734 149.438C246.277 151.896 244.896 155.229 244.896 158.704V204.576H271.1Z" fill="white" stroke="#101828" stroke-width="4" stroke-linecap="round" stroke-linejoin="round"/>
<path d="M240.844 306.832C240.356 306.834 239.886 307.015 239.522 307.34C239.158 307.665 238.926 308.112 238.868 308.596C238.786 309.331 238.745 310.069 238.744 310.808C238.818 316.031 240.945 321.015 244.665 324.683C248.385 328.35 253.398 330.406 258.622 330.406C263.846 330.406 268.859 328.35 272.579 324.683C276.299 321.015 278.426 316.031 278.5 310.808C278.499 310.069 278.458 309.331 278.376 308.596C278.318 308.112 278.086 307.665 277.722 307.34C277.358 307.015 276.888 306.834 276.4 306.832H240.844Z" fill="#84ADFF" stroke="#101828" stroke-width="4" stroke-linecap="round" stroke-linejoin="round"/>
<path d="M323.108 289.528C321.588 288.43 320.35 286.987 319.494 285.319C318.638 283.651 318.189 281.803 318.184 279.928V241.244C318.184 205.576 291.432 176.552 258.552 176.552C225.672 176.552 198.924 205.576 198.924 241.244V279.912C198.918 281.787 198.468 283.635 197.612 285.303C196.755 286.972 195.516 288.414 193.996 289.512L323.108 289.528Z" fill="white" stroke="#101828" stroke-width="4" stroke-linecap="round" stroke-linejoin="round"/>
<path d="M339.268 299.976C339.269 301.348 338.999 302.707 338.474 303.975C337.949 305.243 337.179 306.395 336.209 307.365C335.239 308.335 334.087 309.105 332.819 309.63C331.551 310.155 330.192 310.425 328.82 310.424H189.496C186.725 310.424 184.068 309.323 182.108 307.364C180.149 305.405 179.048 302.747 179.048 299.976C179.048 297.205 180.149 294.548 182.108 292.588C184.068 290.629 186.725 289.528 189.496 289.528H328.82C330.192 289.528 331.551 289.797 332.819 290.322C334.087 290.847 335.239 291.617 336.209 292.587C337.179 293.557 337.949 294.709 338.474 295.977C338.999 297.245 339.269 298.604 339.268 299.976Z" fill="white" stroke="#101828" stroke-width="4" stroke-linecap="round" stroke-linejoin="round"/>
<path d="M103.236 110.692C103.256 111.472 103.12 112.248 102.836 112.975C102.552 113.702 102.125 114.364 101.58 114.923C101.036 115.482 100.385 115.926 99.6657 116.229C98.9468 116.533 98.1744 116.689 97.394 116.689C96.6137 116.689 95.8413 116.533 95.1224 116.229C94.4034 115.926 93.7525 115.482 93.208 114.923C92.6635 114.364 92.2365 113.702 91.9521 112.975C91.6676 112.248 91.5316 111.472 91.552 110.692V75.64C91.5919 74.117 92.2249 72.6699 93.3161 71.6068C94.4074 70.5438 95.8706 69.9489 97.394 69.9489C98.9175 69.9489 100.381 70.5438 101.472 71.6068C102.563 72.6699 103.196 74.117 103.236 75.64V110.692Z" fill="white" stroke="#101828" stroke-width="4" stroke-linecap="round" stroke-linejoin="round"/>
<path d="M149.972 110.692C149.992 111.472 149.856 112.248 149.572 112.975C149.288 113.702 148.861 114.364 148.316 114.923C147.772 115.482 147.121 115.926 146.402 116.229C145.683 116.533 144.91 116.689 144.13 116.689C143.35 116.689 142.577 116.533 141.858 116.229C141.139 115.926 140.488 115.482 139.944 114.923C139.399 114.364 138.972 113.702 138.688 112.975C138.404 112.248 138.268 111.472 138.288 110.692V75.64C138.328 74.117 138.961 72.6699 140.052 71.6068C141.143 70.5438 142.607 69.9489 144.13 69.9489C145.653 69.9489 147.117 70.5438 148.208 71.6068C149.299 72.6699 149.932 74.117 149.972 75.64V110.692Z" fill="white" stroke="#101828" stroke-width="4" stroke-linecap="round" stroke-linejoin="round"/>
<path d="M214.236 110.692C214.256 111.472 214.12 112.248 213.836 112.975C213.552 113.702 213.125 114.364 212.58 114.923C212.036 115.482 211.385 115.926 210.666 116.229C209.947 116.533 209.174 116.689 208.394 116.689C207.614 116.689 206.841 116.533 206.122 116.229C205.403 115.926 204.753 115.482 204.208 114.923C203.664 114.364 203.236 113.702 202.952 112.975C202.668 112.248 202.532 111.472 202.552 110.692V75.64C202.592 74.117 203.225 72.6699 204.316 71.6068C205.407 70.5438 206.871 69.9489 208.394 69.9489C209.917 69.9489 211.381 70.5438 212.472 71.6068C213.563 72.6699 214.196 74.117 214.236 75.64V110.692Z" fill="white" stroke="#101828" stroke-width="4" stroke-linecap="round" stroke-linejoin="round"/>
<path d="M260.972 110.692C260.992 111.472 260.856 112.248 260.572 112.975C260.288 113.702 259.861 114.364 259.316 114.923C258.772 115.482 258.121 115.926 257.402 116.229C256.683 116.533 255.91 116.689 255.13 116.689C254.35 116.689 253.577 116.533 252.858 116.229C252.139 115.926 251.488 115.482 250.944 114.923C250.399 114.364 249.972 113.702 249.688 112.975C249.404 112.248 249.268 111.472 249.288 110.692V75.64C249.328 74.117 249.961 72.6699 251.052 71.6068C252.143 70.5438 253.607 69.9489 255.13 69.9489C256.653 69.9489 258.117 70.5438 259.208 71.6068C260.299 72.6699 260.932 74.117 260.972 75.64V110.692Z" fill="white" stroke="#101828" stroke-width="4" stroke-linecap="round" stroke-linejoin="round"/>
<path d="M276.144 219.744C276.144 232.79 281.326 245.301 290.551 254.525C299.775 263.75 312.287 268.932 325.332 268.932C338.377 268.932 350.889 263.75 360.113 254.525C369.338 245.301 374.52 232.79 374.52 219.744C374.52 206.699 369.338 194.187 360.113 184.963C350.889 175.738 338.377 170.556 325.332 170.556C312.287 170.556 299.775 175.738 290.551 184.963C281.326 194.187 276.144 206.699 276.144 219.744Z" fill="white" stroke="#101828" stroke-width="4" stroke-linecap="round" stroke-linejoin="round"/>
<path d="M325.332 222.992C323.929 222.992 322.567 222.525 321.46 221.663C320.353 220.802 319.564 219.596 319.22 218.236L315.968 205.436C315.125 202.728 314.457 199.969 313.968 197.176C313.861 195.621 314.074 194.061 314.595 192.592C315.116 191.123 315.933 189.776 316.996 188.636C318.059 187.496 319.345 186.587 320.774 185.964C322.203 185.342 323.744 185.019 325.303 185.017C326.862 185.016 328.404 185.334 329.835 185.953C331.265 186.572 332.553 187.478 333.619 188.616C334.684 189.753 335.505 191.097 336.03 192.565C336.554 194.033 336.771 195.593 336.668 197.148C336.188 199.956 335.519 202.729 334.668 205.448L331.416 218.248C331.07 219.601 330.286 220.801 329.184 221.659C328.083 222.518 326.728 222.987 325.332 222.992Z" fill="#84ADFF" stroke="#101828" stroke-width="4" stroke-linecap="round" stroke-linejoin="round"/>
<path d="M325.332 255.032C323.081 255.033 320.881 254.366 319.009 253.116C317.137 251.867 315.678 250.09 314.816 248.011C313.954 245.931 313.728 243.643 314.166 241.436C314.604 239.228 315.687 237.2 317.278 235.608C318.869 234.016 320.897 232.931 323.104 232.491C325.311 232.052 327.599 232.276 329.679 233.137C331.759 233.997 333.537 235.455 334.788 237.326C336.039 239.197 336.707 241.397 336.708 243.648C336.705 246.665 335.506 249.557 333.373 251.691C331.241 253.825 328.349 255.027 325.332 255.032Z" fill="#84ADFF" stroke="#101828" stroke-width="4" stroke-linecap="round" stroke-linejoin="round"/>
</svg>
