<svg width="400" height="400" viewBox="0 0 400 400" fill="none" xmlns="http://www.w3.org/2000/svg">
<path d="M40 200C40 242.435 56.8571 283.131 86.8629 313.137C116.869 343.143 157.565 360 200 360C242.435 360 283.131 343.143 313.137 313.137C343.143 283.131 360 242.435 360 200C360 157.565 343.143 116.869 313.137 86.8629C283.131 56.8571 242.435 40 200 40C157.565 40 116.869 56.8571 86.8629 86.8629C56.8571 116.869 40 157.565 40 200Z" fill="#D1E0FF"/>
<path d="M79.292 201.188C79.292 217.114 82.4289 232.884 88.5236 247.598C94.6183 262.312 103.551 275.682 114.813 286.943C126.074 298.205 139.444 307.138 154.158 313.232C168.872 319.327 184.642 322.464 200.568 322.464C216.494 322.464 232.264 319.327 246.978 313.232C261.692 307.138 275.062 298.205 286.323 286.943C297.585 275.682 306.518 262.312 312.612 247.598C318.707 232.884 321.844 217.114 321.844 201.188C321.844 185.262 318.707 169.492 312.612 154.778C306.518 140.064 297.585 126.694 286.323 115.433C275.062 104.171 261.692 95.2383 246.978 89.1436C232.264 83.0489 216.494 79.912 200.568 79.912C184.642 79.912 168.872 83.0489 154.158 89.1436C139.444 95.2383 126.074 104.171 114.813 115.433C103.551 126.694 94.6183 140.064 88.5236 154.778C82.4289 169.492 79.292 185.262 79.292 201.188Z" fill="#84ADFF" stroke="#101828" stroke-width="4" stroke-linecap="round" stroke-linejoin="round"/>
<path d="M227.736 134.94C246.561 139.249 264.079 148.006 278.824 160.476H295.424C298.716 160.475 301.929 159.463 304.626 157.575C307.323 155.688 309.375 153.017 310.504 149.924C303.264 134.44 292.842 120.657 279.916 109.473C266.99 98.2886 251.852 89.9552 235.488 85.016H217.452C213.544 84.9295 209.729 86.2205 206.677 88.663C203.625 91.1055 201.529 94.5438 200.756 98.376C200.366 100.68 200.483 103.041 201.098 105.295C201.714 107.549 202.815 109.642 204.322 111.427C205.83 113.212 207.709 114.647 209.828 115.632C211.947 116.617 214.255 117.127 216.592 117.128C218.56 117.13 220.502 117.583 222.268 118.453C224.034 119.323 225.577 120.586 226.777 122.146C227.978 123.706 228.805 125.52 229.195 127.45C229.584 129.379 229.526 131.373 229.024 133.276C228.867 133.898 228.661 134.507 228.408 135.096" fill="white"/>
<path d="M310.504 149.924C303.264 134.44 292.842 120.657 279.916 109.473C266.99 98.2886 251.852 89.9552 235.488 85.016H217.452C213.544 84.9295 209.729 86.2205 206.677 88.663C203.625 91.1055 201.529 94.5438 200.756 98.376C200.366 100.68 200.483 103.041 201.098 105.295C201.714 107.549 202.815 109.642 204.322 111.427C205.83 113.212 207.709 114.647 209.828 115.632C211.947 116.617 214.255 117.127 216.592 117.128C218.56 117.13 220.502 117.583 222.268 118.453C224.034 119.323 225.577 120.586 226.777 122.146C227.978 123.706 228.805 125.52 229.195 127.45C229.584 129.379 229.526 131.373 229.024 133.276C228.215 136.067 226.508 138.514 224.167 140.236C221.826 141.958 218.982 142.859 216.076 142.8H170.24C161.792 142.63 153.594 145.674 147.305 151.318C141.016 156.961 137.106 164.783 136.364 173.2C136.129 177.556 136.785 181.914 138.29 186.008C139.795 190.102 142.119 193.847 145.12 197.013C148.12 200.18 151.734 202.701 155.742 204.425C159.749 206.148 164.066 207.036 168.428 207.036H187.296C189.53 207.036 191.673 207.924 193.253 209.503C194.833 211.083 195.72 213.226 195.72 215.46V222.288C195.711 223.232 195.888 224.168 196.242 225.042C196.596 225.917 197.119 226.713 197.782 227.385C198.445 228.056 199.234 228.59 200.105 228.955C200.975 229.32 201.908 229.509 202.852 229.512C203.808 229.5 204.757 229.679 205.644 230.036C206.531 230.394 207.338 230.924 208.019 231.596C208.699 232.268 209.239 233.068 209.608 233.951C209.977 234.833 210.168 235.78 210.168 236.736V245.568C210.281 246.936 209.907 248.301 209.112 249.42C206.261 252.91 204.721 257.288 204.76 261.794C204.798 266.301 206.413 270.652 209.324 274.092C211.288 276.297 213.709 278.048 216.418 279.222C219.127 280.397 222.06 280.967 225.012 280.892H232.644C253.516 280.892 259.94 261.628 259.94 251.992V219.876C259.934 216.681 260.806 213.546 262.46 210.813C264.114 208.08 266.487 205.853 269.32 204.376C273.072 202.074 276.171 198.848 278.321 195.007C280.471 191.166 281.6 186.838 281.6 182.436C281.594 182.146 281.475 181.869 281.268 181.665C281.061 181.461 280.783 181.346 280.492 181.344H267.968C266.268 181.345 264.637 180.672 263.433 179.472C262.229 178.272 261.549 176.644 261.544 174.944V166.896C261.549 165.196 262.229 163.568 263.433 162.368C264.637 161.168 266.268 160.495 267.968 160.496H295.424C298.719 160.494 301.933 159.478 304.63 157.587C307.328 155.696 309.379 153.02 310.504 149.924Z" fill="white" stroke="#101828" stroke-width="4" stroke-linecap="round" stroke-linejoin="round"/>
<path d="M190.272 123.844C190.272 133.991 192.271 144.039 196.154 153.413C200.037 162.788 205.728 171.306 212.903 178.481C220.078 185.656 228.596 191.347 237.971 195.23C247.345 199.113 257.393 201.112 267.54 201.112C277.687 201.112 287.735 199.113 297.109 195.23C306.484 191.347 315.002 185.656 322.177 178.481C329.352 171.306 335.043 162.788 338.926 153.413C342.809 144.039 344.808 133.991 344.808 123.844C344.808 113.697 342.809 103.649 338.926 94.2749C335.043 84.9003 329.352 76.3823 322.177 69.2073C315.002 62.0323 306.484 56.3408 297.109 52.4577C287.735 48.5746 277.687 46.576 267.54 46.576C257.393 46.576 247.345 48.5746 237.971 52.4577C228.596 56.3408 220.078 62.0323 212.903 69.2073C205.728 76.3823 200.037 84.9003 196.154 94.2749C192.271 103.649 190.272 113.697 190.272 123.844Z" fill="white" stroke="#101828" stroke-width="4" stroke-linecap="round" stroke-linejoin="round"/>
<path d="M267.76 156.424C258.081 156.425 248.624 159.317 240.599 164.729C232.575 170.141 226.351 177.827 222.724 186.8C235.871 196.154 251.615 201.16 267.75 201.116C283.885 201.071 299.601 195.979 312.696 186.552C309.038 177.64 302.813 170.017 294.811 164.652C286.81 159.287 277.394 156.423 267.76 156.424Z" fill="#84ADFF" stroke="#101828" stroke-width="4" stroke-linecap="round" stroke-linejoin="round"/>
<path d="M281.548 158.4C280.721 158.155 279.995 157.649 279.479 156.958C278.963 156.266 278.684 155.427 278.684 154.564V133.88H256.824V154.58C256.824 155.443 256.545 156.282 256.029 156.974C255.513 157.665 254.787 158.171 253.96 158.416C251.73 159.075 249.551 159.895 247.44 160.868C250.152 164.398 253.646 167.25 257.648 169.2C258.909 169.703 259.929 170.669 260.5 171.9L265.272 183.032C265.481 183.517 265.827 183.93 266.267 184.22C266.708 184.51 267.224 184.664 267.752 184.664C268.28 184.664 268.796 184.51 269.236 184.22C269.677 183.93 270.023 183.517 270.232 183.032L275.004 171.892C275.573 170.665 276.589 169.702 277.844 169.2C281.853 167.262 285.353 164.413 288.064 160.88C285.955 159.897 283.777 159.068 281.548 158.4Z" fill="white" stroke="#101828" stroke-width="4" stroke-linecap="round" stroke-linejoin="round"/>
<path d="M288.064 160.86C285.353 164.393 281.853 167.242 277.844 169.18C277.234 169.442 276.671 169.801 276.176 170.244L283.744 177.808C284.618 178.687 285.769 179.238 287.002 179.367C288.235 179.496 289.475 179.195 290.512 178.516C294.3 175.909 297.788 172.891 300.912 169.516C297.119 165.963 292.781 163.041 288.064 160.86Z" fill="#84ADFF" stroke="#101828" stroke-width="4" stroke-linecap="round" stroke-linejoin="round"/>
<path d="M257.648 169.2C253.649 167.255 250.154 164.41 247.44 160.888C242.726 163.066 238.392 165.984 234.6 169.532C237.851 172.907 241.453 175.925 245.344 178.536C246.382 179.215 247.622 179.515 248.856 179.386C250.089 179.257 251.241 178.707 252.116 177.828L259.316 170.276C258.822 169.83 258.258 169.466 257.648 169.2Z" fill="#84ADFF" stroke="#101828" stroke-width="4" stroke-linecap="round" stroke-linejoin="round"/>
<path d="M305.412 120.152C305.398 118.621 304.854 117.142 303.874 115.966C302.893 114.789 301.536 113.989 300.032 113.7V109.396C299.937 100.9 296.496 92.7835 290.454 86.8089C284.413 80.8342 276.259 77.4833 267.762 77.4833C259.265 77.4833 251.111 80.8342 245.07 86.8089C239.028 92.7835 235.587 100.9 235.492 109.396V113.7C233.925 113.995 232.518 114.848 231.532 116.101C230.546 117.355 230.049 118.923 230.131 120.515C230.214 122.108 230.871 123.616 231.981 124.761C233.091 125.906 234.579 126.609 236.168 126.74C237.675 134.007 241.64 140.533 247.396 145.218C253.152 149.903 260.346 152.461 267.768 152.461C275.19 152.461 282.384 149.903 288.14 145.218C293.896 140.533 297.861 134.007 299.368 126.74C301.013 126.588 302.544 125.83 303.661 124.612C304.778 123.394 305.402 121.804 305.412 120.152Z" fill="white" stroke="#101828" stroke-width="4" stroke-linecap="round" stroke-linejoin="round"/>
<path d="M246.252 124.188C246.252 125.257 246.677 126.283 247.433 127.039C248.189 127.795 249.215 128.22 250.284 128.22C251.353 128.22 252.379 127.795 253.135 127.039C253.891 126.283 254.316 125.257 254.316 124.188C254.316 123.119 253.891 122.093 253.135 121.337C252.379 120.581 251.353 120.156 250.284 120.156C249.215 120.156 248.189 120.581 247.433 121.337C246.677 122.093 246.252 123.119 246.252 124.188Z" fill="#84ADFF"/>
<path d="M281.208 124.188C281.208 124.718 281.312 125.242 281.515 125.731C281.718 126.22 282.015 126.665 282.389 127.039C282.763 127.413 283.208 127.71 283.697 127.913C284.186 128.116 284.711 128.22 285.24 128.22C285.769 128.22 286.294 128.116 286.783 127.913C287.272 127.71 287.717 127.413 288.091 127.039C288.465 126.665 288.762 126.22 288.965 125.731C289.168 125.242 289.272 124.718 289.272 124.188C289.272 123.659 289.168 123.134 288.965 122.645C288.762 122.156 288.465 121.711 288.091 121.337C287.717 120.963 287.272 120.666 286.783 120.463C286.294 120.26 285.769 120.156 285.24 120.156C284.711 120.156 284.186 120.26 283.697 120.463C283.208 120.666 282.763 120.963 282.389 121.337C282.015 121.711 281.718 122.156 281.515 122.645C281.312 123.134 281.208 123.659 281.208 124.188Z" fill="#84ADFF"/>
<path d="M275.828 133.6C273.501 135.344 270.671 136.287 267.762 136.287C264.853 136.287 262.023 135.344 259.696 133.6" stroke="#101828" stroke-width="4" stroke-linecap="round" stroke-linejoin="round"/>
<path d="M251.628 113.428C251.628 114.497 252.053 115.523 252.809 116.279C253.565 117.035 254.591 117.46 255.66 117.46C256.729 117.46 257.755 117.035 258.511 116.279C259.267 115.523 259.692 114.497 259.692 113.428C259.692 112.359 259.267 111.333 258.511 110.577C257.755 109.821 256.729 109.396 255.66 109.396C254.591 109.396 253.565 109.821 252.809 110.577C252.053 111.333 251.628 112.359 251.628 113.428Z" fill="#101828"/>
<path d="M275.832 113.428C275.832 114.497 276.257 115.523 277.013 116.279C277.769 117.035 278.795 117.46 279.864 117.46C280.933 117.46 281.959 117.035 282.715 116.279C283.471 115.523 283.896 114.497 283.896 113.428C283.896 112.359 283.471 111.333 282.715 110.577C281.959 109.821 280.933 109.396 279.864 109.396C278.795 109.396 277.769 109.821 277.013 110.577C276.257 111.333 275.832 112.359 275.832 113.428Z" fill="#101828"/>
<path d="M253.468 91.452C253.468 91.452 269.6 83.384 277.668 91.452L293.804 107.6C293.804 107.6 301.872 115.668 312.628 104.912L307.248 102.22L315.316 96.844C315.316 96.844 309.94 96.844 304.56 88.776C299.18 80.708 291.116 64.572 272.292 64.572C245.4 64.572 242.712 80.708 242.712 80.708L253.468 91.452Z" fill="#84ADFF" stroke="#101828" stroke-width="4" stroke-linecap="round" stroke-linejoin="round"/>
<path d="M227.424 128.22C227.424 128.926 227.563 129.626 227.833 130.279C228.104 130.932 228.5 131.525 229 132.024C229.499 132.524 230.092 132.92 230.745 133.19C231.398 133.461 232.097 133.6 232.804 133.6C233.51 133.6 234.21 133.461 234.863 133.19C235.516 132.92 236.109 132.524 236.608 132.024C237.108 131.525 237.504 130.932 237.774 130.279C238.045 129.626 238.184 128.926 238.184 128.22C238.184 127.513 238.045 126.814 237.774 126.161C237.504 125.508 237.108 124.915 236.608 124.416C236.109 123.916 235.516 123.52 234.863 123.249C234.21 122.979 233.51 122.84 232.804 122.84C232.097 122.84 231.398 122.979 230.745 123.249C230.092 123.52 229.499 123.916 229 124.416C228.5 124.915 228.104 125.508 227.833 126.161C227.563 126.814 227.424 127.513 227.424 128.22Z" fill="#84ADFF" stroke="#101828" stroke-width="4" stroke-linecap="round" stroke-linejoin="round"/>
<path d="M242.712 80.696C242.712 80.696 229.264 80.696 229.264 96.832C229.264 110.276 236.016 113.884 236.016 113.884C236.016 113.884 242.712 96.832 253.468 91.452L242.712 80.696Z" fill="#84ADFF" stroke="#101828" stroke-width="4" stroke-linecap="round" stroke-linejoin="round"/>
<path d="M297.34 128.22C297.34 129.647 297.907 131.015 298.916 132.024C299.925 133.033 301.293 133.6 302.72 133.6C304.147 133.6 305.515 133.033 306.524 132.024C307.533 131.015 308.1 129.647 308.1 128.22C308.1 126.793 307.533 125.425 306.524 124.416C305.515 123.407 304.147 122.84 302.72 122.84C301.293 122.84 299.925 123.407 298.916 124.416C297.907 125.425 297.34 126.793 297.34 128.22Z" fill="#84ADFF" stroke="#101828" stroke-width="4" stroke-linecap="round" stroke-linejoin="round"/>
<path d="M76.464 275.424C76.464 283.185 77.9926 290.869 80.9624 298.039C83.9323 305.209 88.2852 311.724 93.7728 317.211C99.2604 322.699 105.775 327.052 112.945 330.022C120.115 332.991 127.799 334.52 135.56 334.52C143.321 334.52 151.005 332.991 158.175 330.022C165.345 327.052 171.86 322.699 177.347 317.211C182.835 311.724 187.188 305.209 190.158 298.039C193.127 290.869 194.656 283.185 194.656 275.424C194.656 267.663 193.127 259.979 190.158 252.809C187.188 245.639 182.835 239.124 177.347 233.637C171.86 228.149 165.345 223.796 158.175 220.826C151.005 217.857 143.321 216.328 135.56 216.328C127.799 216.328 120.115 217.857 112.945 220.826C105.775 223.796 99.2604 228.149 93.7728 233.637C88.2852 239.124 83.9323 245.639 80.9624 252.809C77.9926 259.979 76.464 267.663 76.464 275.424Z" fill="white" stroke="#101828" stroke-width="4" stroke-linecap="round" stroke-linejoin="round"/>
<path d="M135.972 230.172C126.925 230.308 118.295 233.996 111.945 240.442C105.595 246.887 102.036 255.572 102.036 264.62V282.52C102.027 286.604 103.632 290.525 106.5 293.432C109.368 296.339 113.269 297.995 117.352 298.04H154.592C158.675 297.995 162.576 296.339 165.444 293.432C168.312 290.525 169.917 286.604 169.908 282.52V264.62C169.909 255.572 166.35 246.887 160 240.441C153.65 233.995 145.019 230.306 135.972 230.172Z" fill="white" stroke="#101828" stroke-width="4" stroke-linecap="round" stroke-linejoin="round"/>
<path d="M135.972 302.04C128.767 302.039 121.71 304.077 115.614 307.918C109.518 311.758 104.634 317.245 101.524 323.744C111.592 330.831 123.622 334.598 135.934 334.519C148.247 334.44 160.227 330.52 170.204 323.304C167.049 316.92 162.171 311.545 156.122 307.788C150.073 304.03 143.093 302.039 135.972 302.04Z" fill="#84ADFF" stroke="#101828" stroke-width="4" stroke-linecap="round" stroke-linejoin="round"/>
<path d="M147.392 303.784C146.579 303.528 145.869 303.02 145.366 302.333C144.862 301.646 144.591 300.816 144.592 299.964V285.564H127.344V299.964C127.345 300.816 127.074 301.646 126.57 302.333C126.067 303.02 125.357 303.528 124.544 303.784C122.993 304.269 121.475 304.855 120 305.536C122.131 308.306 124.877 310.543 128.02 312.072C129.011 312.466 129.814 313.225 130.264 314.192L134.016 322.944C134.179 323.326 134.451 323.652 134.797 323.881C135.144 324.11 135.55 324.232 135.966 324.232C136.382 324.232 136.788 324.11 137.135 323.881C137.481 323.652 137.753 323.326 137.916 322.944L141.668 314.188C142.114 313.223 142.913 312.466 143.9 312.072C147.052 310.548 149.804 308.308 151.936 305.532C150.46 304.853 148.943 304.269 147.392 303.784Z" fill="white" stroke="#101828" stroke-width="4" stroke-linecap="round" stroke-linejoin="round"/>
<path d="M151.936 305.532C149.804 308.308 147.052 310.548 143.9 312.072C143.421 312.278 142.978 312.561 142.588 312.908L148.536 318.856C149.224 319.547 150.129 319.979 151.099 320.08C152.069 320.182 153.044 319.946 153.86 319.412C156.841 317.363 159.586 314.99 162.044 312.336C159.061 309.54 155.649 307.243 151.936 305.532Z" fill="#84ADFF" stroke="#101828" stroke-width="4" stroke-linecap="round" stroke-linejoin="round"/>
<path d="M128.02 312.072C124.877 310.544 122.131 308.306 120 305.536C116.292 307.247 112.883 309.543 109.904 312.336C112.459 314.989 115.29 317.362 118.348 319.416C119.164 319.95 120.139 320.186 121.109 320.084C122.079 319.983 122.984 319.551 123.672 318.86L129.344 312.92C128.952 312.567 128.505 312.281 128.02 312.072Z" fill="#84ADFF" stroke="#101828" stroke-width="4" stroke-linecap="round" stroke-linejoin="round"/>
<path d="M161.424 267.504V264.108C161.433 257.908 159.169 251.919 155.06 247.276V262C155.06 262.274 154.972 262.541 154.808 262.761C154.644 262.981 154.414 263.143 154.152 263.222C153.889 263.301 153.608 263.293 153.35 263.2C153.092 263.106 152.871 262.933 152.72 262.704L150.852 259.88H121.096L119.224 262.704C119.073 262.933 118.852 263.106 118.594 263.2C118.336 263.293 118.055 263.301 117.792 263.222C117.53 263.143 117.3 262.981 117.136 262.761C116.973 262.541 116.884 262.274 116.884 262V247.276C112.775 251.919 110.511 257.908 110.52 264.108V267.504C109.29 267.743 108.188 268.419 107.416 269.407C106.645 270.394 106.256 271.627 106.321 272.879C106.386 274.13 106.901 275.316 107.771 276.218C108.641 277.12 109.808 277.678 111.056 277.788C112.25 283.513 115.379 288.652 119.917 292.341C124.454 296.03 130.124 298.044 135.972 298.044C141.82 298.044 147.49 296.03 152.028 292.341C156.565 288.652 159.694 283.513 160.888 277.788C162.136 277.678 163.303 277.12 164.173 276.218C165.043 275.316 165.558 274.13 165.623 272.879C165.689 271.627 165.3 270.394 164.528 269.407C163.756 268.419 162.654 267.743 161.424 267.504Z" fill="white" stroke="#101828" stroke-width="4" stroke-linecap="round" stroke-linejoin="round"/>
<path d="M119.008 275.772C119.008 276.615 119.343 277.424 119.939 278.021C120.536 278.617 121.345 278.952 122.188 278.952C123.031 278.952 123.84 278.617 124.437 278.021C125.033 277.424 125.368 276.615 125.368 275.772C125.368 274.929 125.033 274.12 124.437 273.523C123.84 272.927 123.031 272.592 122.188 272.592C121.345 272.592 120.536 272.927 119.939 273.523C119.343 274.12 119.008 274.929 119.008 275.772Z" fill="#84ADFF"/>
<path d="M146.58 275.772C146.58 276.19 146.662 276.603 146.822 276.989C146.982 277.375 147.216 277.725 147.511 278.021C147.807 278.316 148.157 278.55 148.543 278.71C148.929 278.87 149.342 278.952 149.76 278.952C150.178 278.952 150.591 278.87 150.977 278.71C151.363 278.55 151.713 278.316 152.009 278.021C152.304 277.725 152.538 277.375 152.698 276.989C152.858 276.603 152.94 276.19 152.94 275.772C152.94 275.354 152.858 274.941 152.698 274.555C152.538 274.169 152.304 273.819 152.009 273.523C151.713 273.228 151.363 272.994 150.977 272.834C150.591 272.674 150.178 272.592 149.76 272.592C149.342 272.592 148.929 272.674 148.543 272.834C148.157 272.994 147.807 273.228 147.511 273.523C147.216 273.819 146.982 274.169 146.822 274.555C146.662 274.941 146.58 275.354 146.58 275.772Z" fill="#84ADFF"/>
<path d="M142.336 283.2C140.5 284.576 138.268 285.319 135.974 285.319C133.68 285.319 131.448 284.576 129.612 283.2" stroke="#101828" stroke-width="4" stroke-linecap="round" stroke-linejoin="round"/>
<path d="M123.248 267.288C123.248 268.131 123.583 268.94 124.179 269.537C124.776 270.133 125.585 270.468 126.428 270.468C127.271 270.468 128.08 270.133 128.677 269.537C129.273 268.94 129.608 268.131 129.608 267.288C129.608 266.445 129.273 265.636 128.677 265.039C128.08 264.443 127.271 264.108 126.428 264.108C125.585 264.108 124.776 264.443 124.179 265.039C123.583 265.636 123.248 266.445 123.248 267.288Z" fill="#101828"/>
<path d="M142.336 267.288C142.336 267.706 142.418 268.119 142.578 268.505C142.738 268.891 142.972 269.241 143.267 269.537C143.563 269.832 143.913 270.066 144.299 270.226C144.685 270.386 145.098 270.468 145.516 270.468C145.934 270.468 146.347 270.386 146.733 270.226C147.119 270.066 147.469 269.832 147.765 269.537C148.06 269.241 148.294 268.891 148.454 268.505C148.614 268.119 148.696 267.706 148.696 267.288C148.696 266.87 148.614 266.457 148.454 266.071C148.294 265.685 148.06 265.335 147.765 265.039C147.469 264.744 147.119 264.51 146.733 264.35C146.347 264.19 145.934 264.108 145.516 264.108C145.098 264.108 144.685 264.19 144.299 264.35C143.913 264.51 143.563 264.744 143.267 265.039C142.972 265.335 142.738 265.685 142.578 266.071C142.418 266.457 142.336 266.87 142.336 267.288Z" fill="#101828"/>
<path d="M57.764 146.428C57.764 156.046 61.5847 165.27 68.3855 172.071C75.1863 178.871 84.4102 182.692 94.028 182.692C103.646 182.692 112.87 178.871 119.671 172.071C126.471 165.27 130.292 156.046 130.292 146.428C130.292 136.81 126.471 127.586 119.671 120.786C112.87 113.985 103.646 110.164 94.028 110.164C84.4102 110.164 75.1863 113.985 68.3855 120.786C61.5847 127.586 57.764 136.81 57.764 146.428Z" fill="white" stroke="#101828" stroke-width="4" stroke-linecap="round" stroke-linejoin="round"/>
<path d="M78.12 138.892C78.12 143.028 79.7631 146.995 82.688 149.92C85.6128 152.845 89.5797 154.488 93.716 154.488C97.8523 154.488 101.819 152.845 104.744 149.92C107.669 146.995 109.312 143.028 109.312 138.892C109.312 134.756 107.669 130.789 104.744 127.864C101.819 124.939 97.8523 123.296 93.716 123.296C89.5797 123.296 85.6128 124.939 82.688 127.864C79.7631 130.789 78.12 134.756 78.12 138.892Z" fill="#84ADFF" stroke="#101828" stroke-width="4" stroke-linecap="round" stroke-linejoin="round"/>
<path d="M94.028 182.696C102.172 182.707 110.082 179.965 116.472 174.916C113.832 171.425 110.425 168.588 106.513 166.624C102.601 164.661 98.2897 163.624 93.9129 163.594C89.5361 163.564 85.2111 164.541 81.2725 166.451C77.334 168.36 73.8875 171.15 71.2 174.604C77.6517 179.847 85.7143 182.705 94.028 182.696Z" fill="#84ADFF" stroke="#101828" stroke-width="4" stroke-linecap="round" stroke-linejoin="round"/>
<path d="M252.788 282.632C252.788 287.069 253.662 291.463 255.36 295.562C257.058 299.661 259.547 303.386 262.684 306.524C265.822 309.661 269.547 312.15 273.646 313.848C277.745 315.546 282.139 316.42 286.576 316.42C291.013 316.42 295.407 315.546 299.506 313.848C303.606 312.15 307.33 309.661 310.468 306.524C313.605 303.386 316.094 299.661 317.792 295.562C319.49 291.463 320.364 287.069 320.364 282.632C320.364 278.195 319.49 273.801 317.792 269.702C316.094 265.603 313.605 261.878 310.468 258.74C307.33 255.603 303.606 253.114 299.506 251.416C295.407 249.718 291.013 248.844 286.576 248.844C282.139 248.844 277.745 249.718 273.646 251.416C269.547 253.114 265.822 255.603 262.684 258.74C259.547 261.878 257.058 265.603 255.36 269.702C253.662 273.801 252.788 278.195 252.788 282.632Z" fill="white" stroke="#101828" stroke-width="4" stroke-linecap="round" stroke-linejoin="round"/>
<path d="M271.756 275.612C271.756 279.465 273.287 283.16 276.011 285.885C278.736 288.609 282.431 290.14 286.284 290.14C290.137 290.14 293.832 288.609 296.557 285.885C299.281 283.16 300.812 279.465 300.812 275.612C300.812 271.759 299.281 268.064 296.557 265.339C293.832 262.615 290.137 261.084 286.284 261.084C282.431 261.084 278.736 262.615 276.011 265.339C273.287 268.064 271.756 271.759 271.756 275.612Z" fill="#84ADFF" stroke="#101828" stroke-width="4" stroke-linecap="round" stroke-linejoin="round"/>
<path d="M286.58 316.424C294.167 316.434 301.535 313.88 307.488 309.176C305.028 305.924 301.852 303.281 298.207 301.452C294.563 299.624 290.546 298.658 286.468 298.63C282.39 298.601 278.36 299.511 274.691 301.29C271.021 303.068 267.809 305.666 265.304 308.884C271.317 313.771 278.832 316.434 286.58 316.424Z" fill="#84ADFF" stroke="#101828" stroke-width="4" stroke-linecap="round" stroke-linejoin="round"/>
</svg>
