<svg width="32" height="32" viewBox="0 0 32 32" fill="none" xmlns="http://www.w3.org/2000/svg">
<g clip-path="url(#clip0_307_9066)">
<path d="M5.3335 8.00016C5.3335 8.70741 5.61445 9.38568 6.11454 9.88578C6.61464 10.3859 7.29292 10.6668 8.00016 10.6668C8.70741 10.6668 9.38568 10.3859 9.88578 9.88578C10.3859 9.38568 10.6668 8.70741 10.6668 8.00016C10.6668 7.29292 10.3859 6.61464 9.88578 6.11454C9.38568 5.61445 8.70741 5.3335 8.00016 5.3335C7.29292 5.3335 6.61464 5.61445 6.11454 6.11454C5.61445 6.61464 5.3335 7.29292 5.3335 8.00016Z" stroke="#155EEF" stroke-width="2" stroke-linecap="round" stroke-linejoin="round"/>
<path d="M21.3335 24.0002C21.3335 24.7074 21.6144 25.3857 22.1145 25.8858C22.6146 26.3859 23.2929 26.6668 24.0002 26.6668C24.7074 26.6668 25.3857 26.3859 25.8858 25.8858C26.3859 25.3857 26.6668 24.7074 26.6668 24.0002C26.6668 23.2929 26.3859 22.6146 25.8858 22.1145C25.3857 21.6144 24.7074 21.3335 24.0002 21.3335C23.2929 21.3335 22.6146 21.6144 22.1145 22.1145C21.6144 22.6146 21.3335 23.2929 21.3335 24.0002Z" stroke="#155EEF" stroke-width="2" stroke-linecap="round" stroke-linejoin="round"/>
<path d="M14.6665 8H21.3332C22.0404 8 22.7187 8.28095 23.2188 8.78105C23.7189 9.28115 23.9998 9.95942 23.9998 10.6667V21.3333" stroke="#155EEF" stroke-width="2" stroke-linecap="round" stroke-linejoin="round"/>
<path d="M18.6665 12L14.6665 8L18.6665 4" stroke="#155EEF" stroke-width="2" stroke-linecap="round" stroke-linejoin="round"/>
<path d="M17.3333 24.0001H10.6667C9.95942 24.0001 9.28115 23.7191 8.78105 23.219C8.28095 22.7189 8 22.0407 8 21.3334V10.6667" stroke="#155EEF" stroke-width="2" stroke-linecap="round" stroke-linejoin="round"/>
<path d="M13.3335 20L17.3335 24L13.3335 28" stroke="#155EEF" stroke-width="2" stroke-linecap="round" stroke-linejoin="round"/>
</g>
<defs>
<clipPath id="clip0_307_9066">
<rect width="32" height="32" fill="white"/>
</clipPath>
</defs>
</svg>
