<svg width="33" height="32" viewBox="0 0 33 32" fill="none" xmlns="http://www.w3.org/2000/svg">
<g clip-path="url(#clip0_307_9038)">
<path d="M15.3325 16.0001C15.3325 16.3537 15.473 16.6928 15.723 16.9429C15.9731 17.1929 16.3122 17.3334 16.6659 17.3334C17.0195 17.3334 17.3586 17.1929 17.6087 16.9429C17.8587 16.6928 17.9992 16.3537 17.9992 16.0001C17.9992 15.6465 17.8587 15.3073 17.6087 15.0573C17.3586 14.8072 17.0195 14.6667 16.6659 14.6667C16.3122 14.6667 15.9731 14.8072 15.723 15.0573C15.473 15.3073 15.3325 15.6465 15.3325 16.0001Z" stroke="#155EEF" stroke-width="2" stroke-linecap="round" stroke-linejoin="round"/>
<path d="M16.6667 9.3335C15.3481 9.3335 14.0592 9.72449 12.9629 10.457C11.8665 11.1896 11.0121 12.2308 10.5075 13.4489C10.0029 14.6671 9.87087 16.0076 10.1281 17.3008C10.3853 18.594 11.0203 19.7819 11.9526 20.7142C12.885 21.6466 14.0729 22.2815 15.3661 22.5387C16.6593 22.796 17.9997 22.6639 19.2179 22.1594C20.4361 21.6548 21.4773 20.8003 22.2098 19.704C22.9423 18.6076 23.3333 17.3187 23.3333 16.0002" stroke="#155EEF" stroke-width="2" stroke-linecap="round" stroke-linejoin="round"/>
<path d="M18 4.07336C15.5281 3.79604 13.0311 4.29373 10.8544 5.49759C8.67769 6.70144 6.9289 8.55196 5.8499 10.7932C4.77091 13.0344 4.41504 15.5555 4.83153 18.0078C5.24802 20.4601 6.41628 22.7224 8.1747 24.4817C9.93313 26.241 12.1948 27.4104 14.6469 27.8281C17.099 28.2458 19.6203 27.8913 21.8621 26.8134C24.1038 25.7355 25.9552 23.9877 27.1602 21.8116C28.3651 19.6355 28.8641 17.1387 28.588 14.6667" stroke="#155EEF" stroke-width="2" stroke-linecap="round" stroke-linejoin="round"/>
<path d="M20.666 8V12H24.666L28.666 8H24.666V4L20.666 8Z" stroke="#155EEF" stroke-width="2" stroke-linecap="round" stroke-linejoin="round"/>
<path d="M20.666 12L16.666 16" stroke="#155EEF" stroke-width="2" stroke-linecap="round" stroke-linejoin="round"/>
</g>
<defs>
<clipPath id="clip0_307_9038">
<rect width="32" height="32" fill="white" transform="translate(0.666504)"/>
</clipPath>
</defs>
</svg>
