<svg width="33" height="32" viewBox="0 0 33 32" fill="none" xmlns="http://www.w3.org/2000/svg">
<g clip-path="url(#clip0_307_9050)">
<path d="M5.66602 17.3333C8.04347 17.6158 10.2567 18.69 11.9497 20.3829C13.6426 22.0759 14.7168 24.2891 14.9993 26.6666C16.1779 25.9871 17.1637 25.0184 17.8637 23.8518C18.5636 22.6853 18.9544 21.3596 18.9993 19.9999C21.2382 19.2123 23.1932 17.7786 24.6171 15.8799C26.0411 13.9813 26.8701 11.703 26.9993 9.33325C26.9993 8.27239 26.5779 7.25497 25.8278 6.50482C25.0776 5.75468 24.0602 5.33325 22.9993 5.33325C20.6296 5.46246 18.3513 6.29147 16.4527 7.71545C14.554 9.13944 13.1203 11.0944 12.3327 13.3333C10.973 13.3782 9.64729 13.769 8.48077 14.4689C7.31424 15.1689 6.34547 16.1547 5.66602 17.3333Z" stroke="#155EEF" stroke-width="2" stroke-linecap="round" stroke-linejoin="round"/>
<path d="M9.66666 18.6667C8.27896 19.4502 7.15686 20.6302 6.4442 22.0555C5.73153 23.4808 5.46078 25.0865 5.66666 26.6667C7.24687 26.8726 8.85256 26.6019 10.2779 25.8892C11.7032 25.1765 12.8832 24.0544 13.6667 22.6667" stroke="#155EEF" stroke-width="2" stroke-linecap="round" stroke-linejoin="round"/>
<path d="M18.9995 12.0001C18.9995 12.3537 19.14 12.6928 19.39 12.9429C19.6401 13.1929 19.9792 13.3334 20.3328 13.3334C20.6865 13.3334 21.0256 13.1929 21.2757 12.9429C21.5257 12.6928 21.6662 12.3537 21.6662 12.0001C21.6662 11.6465 21.5257 11.3073 21.2757 11.0573C21.0256 10.8072 20.6865 10.6667 20.3328 10.6667C19.9792 10.6667 19.6401 10.8072 19.39 11.0573C19.14 11.3073 18.9995 11.6465 18.9995 12.0001Z" stroke="#155EEF" stroke-width="2" stroke-linecap="round" stroke-linejoin="round"/>
</g>
<defs>
<clipPath id="clip0_307_9050">
<rect width="32" height="32" fill="white" transform="translate(0.333496)"/>
</clipPath>
</defs>
</svg>
