<svg width="33" height="32" viewBox="0 0 33 32" fill="none" xmlns="http://www.w3.org/2000/svg">
<g clip-path="url(#clip0_307_9045)">
<path d="M4.66602 16C4.66602 17.5759 4.9764 19.1363 5.57946 20.5922C6.18252 22.0481 7.06643 23.371 8.18073 24.4853C9.29504 25.5996 10.6179 26.4835 12.0738 27.0866C13.5297 27.6896 15.0902 28 16.666 28C18.2419 28 19.8023 27.6896 21.2582 27.0866C22.7141 26.4835 24.037 25.5996 25.1513 24.4853C26.2656 23.371 27.1495 22.0481 27.7526 20.5922C28.3556 19.1363 28.666 17.5759 28.666 16C28.666 14.4241 28.3556 12.8637 27.7526 11.4078C27.1495 9.95189 26.2656 8.62902 25.1513 7.51472C24.037 6.40042 22.7141 5.5165 21.2582 4.91345C19.8023 4.31039 18.2419 4 16.666 4C15.0902 4 13.5297 4.31039 12.0738 4.91345C10.6179 5.5165 9.29504 6.40042 8.18073 7.51472C7.06643 8.62902 6.18252 9.95189 5.57946 11.4078C4.9764 12.8637 4.66602 14.4241 4.66602 16Z" stroke="#155EEF" stroke-width="2" stroke-linecap="round" stroke-linejoin="round"/>
<path d="M16.666 16H21.3327" stroke="#155EEF" stroke-width="2" stroke-linecap="round" stroke-linejoin="round"/>
<path d="M16.666 9.33325V15.9999" stroke="#155EEF" stroke-width="2" stroke-linecap="round" stroke-linejoin="round"/>
</g>
<defs>
<clipPath id="clip0_307_9045">
<rect width="32" height="32" fill="white" transform="translate(0.666504)"/>
</clipPath>
</defs>
</svg>
