<svg width="500" height="500" viewBox="0 0 500 500" fill="none" xmlns="http://www.w3.org/2000/svg">
<path d="M306.81 271.75C300.845 275.425 281.93 277.858 273.892 278.305H310.142C309.187 276.045 308.075 273.852 306.81 271.75Z" fill="#D1E0FF"/>
<path d="M312.75 286.575H193.903L150.203 377.302C152.276 379.135 154.479 380.815 156.795 382.33L150.25 396.11C159.653 398.692 169.559 398.84 179.035 396.537L181.445 390.915C183.848 391.15 186.263 391.252 188.678 391.217L205.793 359.895L200.648 385.895C202.96 387.035 205.338 388.037 207.77 388.895L205.873 396.532C214.441 398.98 223.524 398.98 232.093 396.532L232.898 392.935C235.195 392.92 237.508 392.83 239.835 392.637L258.693 316.352L264.393 317.207L304.055 314.025C312.21 307.357 315.763 299.07 312.75 286.575Z" fill="#D1E0FF"/>
<path d="M162.125 210.907C161.982 212.65 161.334 214.313 160.261 215.693C159.188 217.073 157.736 218.111 156.083 218.68C154.43 219.249 152.647 219.324 150.952 218.896C149.257 218.468 147.723 217.556 146.538 216.27C145.353 214.985 144.568 213.382 144.279 211.658C143.99 209.934 144.209 208.163 144.91 206.561C145.611 204.96 146.764 203.597 148.226 202.64C149.689 201.682 151.399 201.171 153.147 201.17C155.629 201.271 157.969 202.354 159.652 204.18C161.336 206.006 162.225 208.426 162.125 210.907Z" fill="#D1E0FF"/>
<path d="M158.562 197.085C157.123 198.148 155.362 198.684 153.575 198.605C153.75 196.826 154.539 195.163 155.807 193.902C157.247 192.84 159.007 192.303 160.795 192.382C160.62 194.162 159.83 195.824 158.562 197.085Z" fill="#D1E0FF"/>
<path d="M263.015 187.5C262.935 188.748 262.682 189.979 262.265 191.158L266.825 186.883C265.585 187.247 264.305 187.454 263.015 187.5Z" fill="#155EEF"/>
<path d="M281.16 227.77V249.905C282.395 249.715 283.63 249.525 284.865 249.288C284.205 242.028 282.965 234.833 281.16 227.77Z" fill="#155EEF"/>
<path d="M253.467 260.592L247.672 258.455C247.007 257.885 246.342 257.267 245.725 256.65C247.25 250.047 251.33 252.517 253.467 260.592Z" fill="#155EEF"/>
<path d="M209.197 178.893V238.933C209.196 241.124 208.325 243.226 206.775 244.775C205.225 246.325 203.124 247.196 200.932 247.198H197.797C199.989 247.196 202.09 246.325 203.64 244.775C205.19 243.226 206.061 241.124 206.062 238.933V178.893C206.061 176.701 205.19 174.599 203.64 173.05C202.09 171.5 199.989 170.629 197.797 170.628H200.932C203.124 170.629 205.225 171.5 206.775 173.05C208.325 174.599 209.196 176.701 209.197 178.893Z" fill="#155EEF"/>
<path d="M179.225 276.22H173.05C172.06 276.23 171.101 275.87 170.361 275.212C169.621 274.552 169.154 273.643 169.05 272.658L166.448 247.25H163.312L166.78 278.885H181.838C181.844 278.537 181.782 278.193 181.653 277.87C181.525 277.548 181.334 277.253 181.091 277.005C180.847 276.758 180.557 276.56 180.237 276.425C179.917 276.29 179.573 276.22 179.225 276.22Z" fill="#155EEF"/>
<path d="M284.722 170.342C285.282 169.668 285.585 168.817 285.572 167.94C285.56 167.063 285.237 166.22 284.657 165.561C284.08 164.903 283.285 164.472 282.417 164.347C281.55 164.222 280.665 164.411 279.925 164.88C280.327 164.157 280.472 163.32 280.34 162.504C280.21 161.688 279.807 160.94 279.197 160.38C278.587 159.821 277.81 159.483 276.985 159.42C276.16 159.357 275.34 159.574 274.652 160.035C276.867 156.047 270.517 152.64 268.152 156.472C266.69 160.8 264.862 164.995 262.69 169.013C268.77 160.513 272.855 169.535 272.475 174.855C272.522 175.9 273.045 176.185 274.755 174.95C278.27 172.385 280.787 178.37 274.232 181.315C272.212 185.2 271.622 189.674 272.57 193.95C272.522 193.285 271.762 180.033 286.725 177.278C287.5 177.113 288.195 176.689 288.695 176.076C289.195 175.462 289.47 174.696 289.475 173.905C289.48 173.327 289.35 172.756 289.092 172.238C288.837 171.72 288.462 171.269 288 170.922C287.537 170.575 287 170.342 286.43 170.242C285.86 170.141 285.275 170.175 284.722 170.342Z" fill="#155EEF"/>
<path d="M269.712 209.387C269.712 209.841 269.532 210.276 269.212 210.596C268.89 210.917 268.455 211.097 268.002 211.097C267.55 211.097 267.115 210.917 266.792 210.596C266.472 210.276 266.292 209.841 266.292 209.387C266.292 208.934 266.472 208.499 266.792 208.178C267.115 207.857 267.55 207.677 268.002 207.677C268.455 207.677 268.89 207.857 269.212 208.178C269.532 208.499 269.712 208.934 269.712 209.387Z" fill="#155EEF"/>
<path d="M253.277 225.205C253.277 225.658 253.097 226.093 252.777 226.414C252.455 226.735 252.02 226.915 251.567 226.915C251.115 226.915 250.68 226.735 250.357 226.414C250.037 226.093 249.858 225.658 249.858 225.205C249.858 224.751 250.037 224.316 250.357 223.996C250.68 223.675 251.115 223.495 251.567 223.495C252.02 223.495 252.455 223.675 252.777 223.996C253.097 224.316 253.277 224.751 253.277 225.205Z" fill="#155EEF"/>
<path d="M266.055 243.112C266.055 243.566 265.875 244.001 265.555 244.321C265.233 244.642 264.798 244.822 264.345 244.822C263.893 244.822 263.458 244.642 263.135 244.321C262.815 244.001 262.635 243.566 262.635 243.112C262.635 242.659 262.815 242.224 263.135 241.903C263.458 241.582 263.893 241.402 264.345 241.402C264.798 241.402 265.233 241.582 265.555 241.903C265.875 242.224 266.055 242.659 266.055 243.112Z" fill="#155EEF"/>
<path d="M360 248.48H342.9C342.295 248.48 341.715 248.72 341.287 249.148C340.86 249.575 340.62 250.155 340.62 250.76V276.03C340.62 276.635 340.86 277.215 341.287 277.642C341.715 278.07 342.295 278.31 342.9 278.31H360C360.602 278.302 361.178 278.057 361.603 277.632C362.03 277.207 362.272 276.632 362.28 276.03V250.75C362.277 250.147 362.035 249.569 361.61 249.144C361.182 248.719 360.602 248.48 360 248.48Z" fill="#155EEF"/>
<path d="M357.5 128.25L334.367 134.568C333.955 134.679 333.577 134.897 333.275 135.2C332.972 135.504 332.755 135.881 332.642 136.295C332.532 136.709 332.532 137.145 332.642 137.558C332.755 137.972 332.972 138.349 333.275 138.652L354.08 159.268C354.382 159.57 354.76 159.788 355.175 159.899C355.587 160.01 356.025 160.01 356.437 159.899C356.852 159.789 357.23 159.571 357.532 159.269C357.835 158.966 358.052 158.589 358.165 158.175L364.34 134.615L357.5 128.25Z" fill="#155EEF"/>
<path d="M373.527 118.586C373.112 118.177 372.62 117.853 372.08 117.634C371.542 117.415 370.965 117.305 370.382 117.31C369.8 117.314 369.222 117.433 368.687 117.66C368.15 117.887 367.665 118.218 367.257 118.634L357.615 128.371L364.115 134.403L373.567 124.856C374.382 124.014 374.837 122.886 374.83 121.713C374.822 120.54 374.352 119.417 373.527 118.586Z" fill="#155EEF"/>
<path d="M169.535 86.75C169.533 87.351 169.354 87.9382 169.019 88.4375C168.683 88.9365 168.208 89.325 167.652 89.5537C167.096 89.7825 166.485 89.8412 165.895 89.7227C165.306 89.6042 164.765 89.3135 164.341 88.8877C163.917 88.4617 163.628 87.9195 163.512 87.3297C163.396 86.74 163.457 86.129 163.688 85.574C163.92 85.019 164.31 84.545 164.81 84.2117C165.311 83.8787 165.899 83.7015 166.5 83.7025C166.9 83.7017 167.296 83.7802 167.665 83.9332C168.034 84.0865 168.37 84.311 168.652 84.5942C168.934 84.8777 169.157 85.214 169.309 85.584C169.46 85.954 169.537 86.3502 169.535 86.75Z" fill="#155EEF"/>
<path d="M232.092 396.538C223.524 398.985 214.441 398.985 205.872 396.538C197.845 398.865 182.075 410.075 182.075 410.075H235.132C234.63 405.463 233.611 400.923 232.092 396.538Z" fill="#155EEF"/>
<path d="M179.035 396.537C169.559 398.84 159.653 398.692 150.25 396.11C141.641 398.932 133.804 403.712 127.355 410.075H182.027C181.361 405.495 180.361 400.97 179.035 396.537Z" fill="#155EEF"/>
<path d="M273.797 316.452L264.392 317.213L258.692 316.357L259.88 311.56L273.797 316.452Z" fill="#155EEF"/>
<path d="M438.29 278.31H69.025C67.929 278.31 66.878 278.745 66.103 279.52C65.328 280.295 64.8925 281.347 64.8925 282.442C64.8925 283.537 65.328 284.59 66.103 285.365C66.878 286.14 67.929 286.575 69.025 286.575H119.632L96.3375 415.537C96.2982 415.772 96.2822 416.012 96.29 416.25H104.65L128.06 286.575H379.342L402.76 416.297H411.12C411.072 416.06 411.072 415.822 411.025 415.547L387.732 286.585H438.29C439.385 286.585 440.437 286.15 441.212 285.375C441.987 284.6 442.422 283.548 442.422 282.453C442.422 281.358 441.987 280.305 441.212 279.53C440.437 278.755 439.385 278.32 438.29 278.32V278.31Z" fill="#155EEF"/>
<path d="M169.535 86.75C169.534 87.351 169.354 87.9382 169.019 88.4375C168.684 88.9365 168.208 89.325 167.652 89.5537C167.096 89.7825 166.485 89.8412 165.896 89.7227C165.306 89.6042 164.765 89.3135 164.341 88.8877C163.917 88.4617 163.629 87.9195 163.512 87.3297C163.396 86.74 163.458 86.129 163.689 85.574C163.92 85.019 164.31 84.545 164.811 84.2117C165.311 83.8787 165.899 83.7015 166.5 83.7025C166.9 83.7017 167.296 83.7802 167.665 83.9332C168.035 84.0865 168.37 84.311 168.652 84.5942C168.934 84.8777 169.158 85.214 169.309 85.584C169.461 85.954 169.537 86.3502 169.535 86.75Z" stroke="#101828" stroke-width="1.5"/>
<path d="M373.527 118.586C373.112 118.177 372.62 117.853 372.08 117.634C371.542 117.415 370.965 117.305 370.382 117.31C369.8 117.314 369.222 117.433 368.687 117.66C368.15 117.887 367.665 118.218 367.257 118.634L357.615 128.371L364.115 134.403L373.567 124.856C374.382 124.014 374.837 122.886 374.83 121.713C374.822 120.54 374.352 119.417 373.527 118.586Z" stroke="#101828" stroke-width="1.5" stroke-linejoin="round"/>
<path d="M438.29 278.31H69.025C67.929 278.31 66.878 278.745 66.103 279.52C65.328 280.295 64.8925 281.347 64.8925 282.442C64.8925 283.537 65.328 284.59 66.103 285.365C66.878 286.14 67.929 286.575 69.025 286.575H119.632L96.3375 415.537C96.2982 415.772 96.2822 416.012 96.29 416.25H104.65L128.06 286.575H379.342L402.76 416.297H411.12C411.072 416.06 411.072 415.822 411.025 415.547L387.732 286.585H438.29C439.385 286.585 440.437 286.15 441.212 285.375C441.987 284.6 442.422 283.548 442.422 282.453C442.422 281.358 441.987 280.305 441.212 279.53C440.437 278.755 439.385 278.32 438.29 278.32V278.31Z" stroke="#101828" stroke-width="1.5" stroke-linejoin="round"/>
<path d="M242.685 271.85C240.713 274.52 238.003 276.555 234.888 277.702C231.773 278.85 228.391 279.062 225.157 278.31" stroke="#101828" stroke-width="1.5" stroke-linecap="round" stroke-linejoin="round"/>
<path d="M135.25 263.87C135.25 263.87 112.152 261.735 108.97 278.31" stroke="#101828" stroke-width="1.5" stroke-linecap="round" stroke-linejoin="round"/>
<path d="M143.458 267.575C142.745 267.195 142.17 266.825 141.605 266.482C138.92 264.86 137.948 263.775 135.573 262.207C133.289 260.692 131.171 258.942 129.255 256.982C123.98 251.57 125.74 250.617 131.678 254.18C131.714 254.185 131.747 254.202 131.773 254.227C135.715 256.615 139.827 258.712 144.075 260.5" stroke="#101828" stroke-width="1.5" stroke-linecap="round" stroke-linejoin="round"/>
<path d="M141.605 266.483C136.415 264.188 131.068 262.265 125.605 260.733C121 259.438 121.805 258.4 122.565 258.263C125.371 258.05 128.192 258.16 130.972 258.595" stroke="#101828" stroke-width="1.5" stroke-linecap="round" stroke-linejoin="round"/>
<path d="M142.603 276.22C141.558 276.077 140.56 276.012 139.705 275.982C131.493 275.682 134.388 273.855 137.235 273.037C138.71 272.615 141.13 272.135 143.078 271.47" stroke="#101828" stroke-width="1.5" stroke-linecap="round" stroke-linejoin="round"/>
<path d="M320.252 321.297L333.79 416.297" stroke="#101828" stroke-width="1.5" stroke-linecap="round" stroke-linejoin="round"/>
<path d="M334.93 252.328L312.7 250.713" stroke="#101828" stroke-width="1.5" stroke-linecap="round" stroke-linejoin="round"/>
<path d="M232.898 392.94L232.093 396.538" stroke="#101828" stroke-width="1.5" stroke-linecap="round" stroke-linejoin="round"/>
<path d="M205.825 396.538L207.77 388.9" stroke="#101828" stroke-width="1.5" stroke-linecap="round" stroke-linejoin="round"/>
<path d="M181.458 390.885L179.035 396.538" stroke="#101828" stroke-width="1.5" stroke-linecap="round" stroke-linejoin="round"/>
<path d="M150.203 396.157L156.795 382.33" stroke="#101828" stroke-width="1.5" stroke-linecap="round" stroke-linejoin="round"/>
<path d="M205.825 359.772L188.678 391.217C174.54 391.702 160.759 386.72 150.203 377.302L193.903 286.575" stroke="#101828" stroke-width="1.5" stroke-linecap="round" stroke-linejoin="round"/>
<path d="M226.203 392.75L243.73 309.66C243.985 308.445 244.478 307.295 245.182 306.272C245.885 305.252 246.784 304.38 247.827 303.707C248.869 303.035 250.035 302.577 251.255 302.36C252.478 302.142 253.73 302.17 254.94 302.44C269.687 305.737 297.413 308.767 300.203 286.685" stroke="#101828" stroke-width="1.5" stroke-linecap="round" stroke-linejoin="round"/>
<path d="M164.43 257.14L218.27 248.39C227.153 234.89 237.703 203.62 252.993 199.275C255.5 198.635 257.783 197.321 259.595 195.475" stroke="#101828" stroke-width="1.5" stroke-linecap="round" stroke-linejoin="round"/>
<path d="M263.015 187.5C264.275 187.455 265.525 187.27 266.743 186.95L262.243 191.157" stroke="#101828" stroke-width="1.5" stroke-linecap="round" stroke-linejoin="round"/>
<path d="M273.323 195.85C274.058 197.201 275.28 198.22 276.743 198.7C284.34 201.536 291.382 205.682 297.547 210.95C304.582 217.405 310.798 241.057 313.508 256.645C314.163 260.31 313.41 264.085 311.402 267.22C309.395 270.355 306.28 272.617 302.678 273.555C293.28 276.165 283.63 277.757 273.893 278.305" stroke="#101828" stroke-width="1.5" stroke-linecap="round" stroke-linejoin="round"/>
<path d="M290.28 248.195C276.492 250.855 262.515 252.41 248.48 252.85" stroke="#101828" stroke-width="1.5" stroke-linecap="round" stroke-linejoin="round"/>
<path d="M284.818 249.25C284.2 241.985 282.96 234.786 281.113 227.732V249.915" stroke="#101828" stroke-width="1.5" stroke-linecap="round" stroke-linejoin="round"/>
<path d="M172.623 255.795C176.95 262.43 178.486 270.502 176.898 278.262" stroke="#101828" stroke-width="1.5" stroke-linecap="round" stroke-linejoin="round"/>
<path d="M231.333 259.31C227.675 260.925 218.318 263.588 213.283 265.2C210.908 265.95 215.135 268.668 229.48 264.535" stroke="#101828" stroke-width="1.5" stroke-linecap="round" stroke-linejoin="round"/>
<path d="M232.045 263.015C228.577 265.2 223.545 267.715 218.982 270.14C216.845 271.278 218.792 273.75 231.427 268.525" stroke="#101828" stroke-width="1.5" stroke-linecap="round" stroke-linejoin="round"/>
<path d="M233.042 266.482C231.042 268.952 229.31 271.347 225.965 274.937C224.407 276.61 227.267 277.625 237.84 270.187C239.79 268.815 240.84 270.32 243.397 272.467C246.78 275.305 249.05 278.595 251.52 278.262" stroke="#101828" stroke-width="1.5" stroke-linecap="round" stroke-linejoin="round"/>
<path d="M239.217 255.415C235.417 246.665 237.887 246.165 239.217 248.385C241.472 252.025 244.202 255.345 247.335 258.262" stroke="#101828" stroke-width="1.5" stroke-linecap="round" stroke-linejoin="round"/>
<path d="M245.725 256.65C246.91 251.5 249.657 251.87 251.822 256.115C254.322 261.025 256.602 278.31 251.377 278.31" stroke="#101828" stroke-width="1.5" stroke-linecap="round" stroke-linejoin="round"/>
<path d="M253.292 260.527C247.705 258.442 238.74 254.797 236.32 254.797C235.417 254.797 225.11 257.797 220.122 259.167C216.845 260.072 215.28 261.585 220.597 261.4C222.83 261.322 225.3 261.02 227.532 260.735" stroke="#101828" stroke-width="1.5" stroke-linecap="round" stroke-linejoin="round"/>
<path d="M242.875 223.5C240.815 233.559 240.945 243.943 243.255 253.948" stroke="#101828" stroke-width="1.5" stroke-linecap="round" stroke-linejoin="round"/>
<path d="M166.78 278.262H142.365L145.405 247.245H163.36L166.78 278.262Z" stroke="#101828" stroke-width="1.5" stroke-linecap="round" stroke-linejoin="round"/>
<path d="M162.125 210.907C161.982 212.65 161.334 214.313 160.261 215.693C159.188 217.073 157.736 218.111 156.083 218.68C154.43 219.249 152.647 219.324 150.952 218.896C149.257 218.468 147.723 217.556 146.538 216.27C145.353 214.985 144.568 213.382 144.279 211.658C143.99 209.934 144.209 208.163 144.91 206.561C145.611 204.96 146.764 203.597 148.226 202.64C149.689 201.682 151.399 201.171 153.147 201.17C155.629 201.271 157.969 202.354 159.652 204.18C161.336 206.006 162.225 208.426 162.125 210.907Z" stroke="#101828" stroke-width="1.5" stroke-linecap="round" stroke-linejoin="round"/>
<path d="M158.562 197.085C157.123 198.148 155.362 198.684 153.575 198.605C153.75 196.826 154.539 195.163 155.807 193.902C157.247 192.84 159.007 192.303 160.795 192.382C160.62 194.162 159.83 195.824 158.562 197.085Z" stroke="#101828" stroke-width="1.5" stroke-linecap="round" stroke-linejoin="round"/>
<path d="M262.682 169.06C264.85 165.04 266.678 160.845 268.145 156.52C268.598 155.855 269.25 155.353 270.007 155.085C270.765 154.817 271.588 154.799 272.358 155.032C273.128 155.265 273.8 155.738 274.282 156.382C274.762 157.026 275.025 157.806 275.033 158.61C275.028 159.124 274.898 159.63 274.653 160.082C275.34 159.621 276.16 159.405 276.985 159.467C277.81 159.53 278.588 159.868 279.198 160.428C279.805 160.987 280.21 161.735 280.34 162.552C280.473 163.368 280.328 164.205 279.925 164.927C280.665 164.459 281.55 164.27 282.418 164.394C283.285 164.519 284.08 164.95 284.657 165.609C285.237 166.267 285.56 167.111 285.572 167.987C285.585 168.864 285.282 169.716 284.722 170.39C285.18 170.243 285.66 170.189 286.14 170.231C286.618 170.274 287.082 170.411 287.505 170.637C287.93 170.862 288.303 171.17 288.605 171.542C288.908 171.914 289.133 172.344 289.268 172.804C289.4 173.265 289.44 173.748 289.385 174.225C289.327 174.701 289.177 175.162 288.94 175.579C288.702 175.996 288.385 176.361 288.002 176.653C287.622 176.945 287.188 177.157 286.723 177.277C282.678 177.714 278.953 179.687 276.318 182.789C273.685 185.891 272.343 189.886 272.568 193.95" stroke="#101828" stroke-width="1.5" stroke-linecap="round" stroke-linejoin="round"/>
<path d="M273.323 195.85L272.42 202.975L265.153 197.227L256.935 201.36L259.595 195.47" stroke="#101828" stroke-width="1.5" stroke-linecap="round" stroke-linejoin="round"/>
<path d="M265.153 197.227C259.168 212.332 257.03 231.285 256.935 252.375" stroke="#101828" stroke-width="1.5" stroke-linecap="round" stroke-linejoin="round"/>
<path d="M362.29 256.602C364.093 256.602 365.82 257.317 367.093 258.592C368.368 259.865 369.083 261.592 369.083 263.395C369.083 265.197 368.368 266.925 367.093 268.197C365.82 269.472 364.093 270.187 362.29 270.187" stroke="#101828" stroke-width="1.5" stroke-linecap="round" stroke-linejoin="round"/>
<path d="M424.562 193.57C424.562 194.397 424.317 195.205 423.857 195.892C423.4 196.58 422.745 197.115 421.982 197.432C421.217 197.748 420.377 197.831 419.567 197.67C418.755 197.508 418.012 197.11 417.427 196.526C416.842 195.941 416.445 195.196 416.282 194.385C416.122 193.575 416.205 192.734 416.52 191.97C416.837 191.207 417.372 190.554 418.06 190.094C418.747 189.635 419.555 189.39 420.382 189.39C420.932 189.387 421.477 189.492 421.985 189.701C422.495 189.91 422.957 190.218 423.345 190.607C423.735 190.996 424.042 191.458 424.25 191.966C424.46 192.475 424.565 193.02 424.562 193.57Z" stroke="#101828" stroke-width="1.5" stroke-linecap="round" stroke-linejoin="round"/>
<path d="M390.98 266.245L420.382 197.75" stroke="#101828" stroke-width="1.5" stroke-linecap="round" stroke-linejoin="round"/>
<path d="M420.383 189.39L377.538 141.32" stroke="#101828" stroke-width="1.5" stroke-linecap="round" stroke-linejoin="round"/>
<path d="M372.408 138.042L365.14 133.387" stroke="#101828" stroke-width="1.5" stroke-linecap="round" stroke-linejoin="round"/>
<path d="M348.04 153.29C347.27 153.891 346.358 154.286 345.39 154.437C344.425 154.588 343.438 154.49 342.52 154.152C341.6 153.815 340.785 153.249 340.148 152.508C339.508 151.767 339.07 150.875 338.873 149.917C338.705 149.109 338.718 148.273 338.905 147.469C339.095 146.665 339.455 145.912 339.965 145.262" stroke="#101828" stroke-width="1.5" stroke-linecap="round" stroke-linejoin="round"/>
<path d="M378.25 139.373C378.25 139.983 378.07 140.58 377.73 141.088C377.39 141.596 376.908 141.991 376.345 142.225C375.78 142.459 375.16 142.52 374.56 142.401C373.963 142.282 373.41 141.988 372.98 141.556C372.548 141.124 372.253 140.574 372.135 139.975C372.015 139.376 372.078 138.755 372.31 138.191C372.545 137.627 372.94 137.145 373.448 136.805C373.955 136.466 374.553 136.285 375.163 136.285C375.978 136.296 376.758 136.624 377.335 137.201C377.91 137.778 378.24 138.557 378.25 139.373Z" stroke="#101828" stroke-width="1.5" stroke-linecap="round" stroke-linejoin="round"/>
<path d="M394.02 269.332C394.02 269.942 393.84 270.54 393.5 271.047C393.16 271.555 392.678 271.952 392.115 272.185C391.55 272.417 390.93 272.48 390.33 272.36C389.733 272.242 389.18 271.947 388.75 271.515C388.318 271.085 388.023 270.532 387.905 269.935C387.785 269.335 387.848 268.715 388.08 268.15C388.313 267.587 388.71 267.105 389.218 266.765C389.725 266.425 390.323 266.245 390.933 266.245C391.338 266.245 391.74 266.323 392.115 266.478C392.49 266.633 392.83 266.86 393.118 267.147C393.405 267.435 393.633 267.775 393.788 268.15C393.943 268.525 394.02 268.927 394.02 269.332Z" stroke="#101828" stroke-width="1.5" stroke-linecap="round" stroke-linejoin="round"/>
<path d="M264.393 327.805L258.693 416.298" stroke="#101828" stroke-width="1.5" stroke-linecap="round" stroke-linejoin="round"/>
<path d="M171.34 128.732H143.03V100.422H171.34V128.732Z" stroke="#101828" stroke-width="1.5" stroke-linecap="round" stroke-linejoin="round"/>
<path d="M157.185 106.882L165.45 89.45" stroke="#101828" stroke-width="1.5" stroke-linecap="round" stroke-linejoin="round"/>
<path d="M75.7225 332.72H54.11" stroke="#101828" stroke-width="1.5" stroke-linecap="round" stroke-linejoin="round"/>
<path d="M64.8925 343.528V321.915" stroke="#101828" stroke-width="1.5" stroke-linecap="round" stroke-linejoin="round"/>
<path d="M425.417 319.018C425.53 320.258 425.272 321.502 424.677 322.595C424.082 323.69 423.175 324.582 422.072 325.16C420.97 325.74 419.722 325.978 418.485 325.848C417.245 325.715 416.075 325.22 415.117 324.422C414.162 323.625 413.462 322.563 413.11 321.37C412.757 320.175 412.767 318.902 413.137 317.715C413.507 316.525 414.222 315.473 415.19 314.69C416.16 313.908 417.337 313.43 418.577 313.318C419.402 313.233 420.235 313.315 421.03 313.557C421.822 313.8 422.557 314.197 423.195 314.73C423.832 315.26 424.357 315.913 424.74 316.65C425.12 317.385 425.35 318.19 425.417 319.018Z" stroke="#101828" stroke-width="1.5" stroke-linecap="round" stroke-linejoin="round"/>
<path d="M12.5 416.297H487.5" stroke="#101828" stroke-width="1.5" stroke-linecap="round" stroke-linejoin="round"/>
<path d="M182.075 410.075H235.132" stroke="#101828" stroke-width="1.5" stroke-linecap="round" stroke-linejoin="round"/>
<path d="M127.307 410.075H181.98" stroke="#101828" stroke-width="1.5" stroke-linecap="round" stroke-linejoin="round"/>
<path d="M182.073 410C181.569 405.412 180.55 400.895 179.035 396.535C169.559 398.837 159.653 398.69 150.25 396.107C138.981 399.935 129.053 406.927 121.655 416.25C143.6 416.25 158.183 416.297 174.713 416.25" stroke="#101828" stroke-width="1.5" stroke-linecap="round" stroke-linejoin="round"/>
<path d="M232.093 396.537C223.524 398.985 214.441 398.985 205.873 396.537C194.043 399.967 178.905 412.057 174.713 416.25C199.793 416.25 215.563 416.012 235.275 416.012C235.449 409.377 234.369 402.77 232.093 396.537Z" stroke="#101828" stroke-width="1.5" stroke-linecap="round" stroke-linejoin="round"/>
<path d="M258.693 316.357L259.88 311.56L273.798 316.452" stroke="#101828" stroke-width="1.5" stroke-linecap="round" stroke-linejoin="round"/>
<path d="M258.693 316.357L264.393 317.212L315.685 313.022" stroke="#101828" stroke-width="1.5" stroke-linecap="round" stroke-linejoin="round"/>
<path d="M322.295 313.508L306.145 312.32" stroke="#101828" stroke-width="1.5" stroke-linecap="round" stroke-linejoin="round"/>
<path d="M173.098 389.46L213.283 322.057" stroke="#101828" stroke-width="1.5" stroke-linecap="round" stroke-linejoin="round"/>
<path d="M260.782 252.09C265.057 258.407 266.15 267.147 263.965 278.31" stroke="#101828" stroke-width="1.5" stroke-linecap="round" stroke-linejoin="round"/>
<path d="M256.08 326.855L264.392 327.805L316.392 323.483C317.485 323.398 318.522 322.97 319.357 322.263C320.192 321.555 320.785 320.603 321.047 319.54L343.515 210.623C343.76 209.454 343.747 208.245 343.477 207.082C343.21 205.918 342.692 204.826 341.96 203.882C341.227 202.938 340.3 202.164 339.24 201.614C338.18 201.064 337.012 200.75 335.82 200.695L274.937 197.75" stroke="#101828" stroke-width="1.5" stroke-linecap="round" stroke-linejoin="round"/>
<path d="M236.368 285.15C231.503 286.087 227.029 288.455 223.517 291.95C220.005 295.445 217.616 299.907 216.655 304.767L200.655 385.897C212.86 391.672 226.409 394.007 239.843 392.647C239.843 392.412 254.39 333.745 258.7 316.362" stroke="#101828" stroke-width="1.5" stroke-linecap="round" stroke-linejoin="round"/>
<path d="M197.797 170.628C199.989 170.629 202.09 171.5 203.64 173.05C205.19 174.6 206.061 176.701 206.062 178.893V238.98C206.062 241.173 205.192 243.275 203.642 244.826C202.092 246.377 199.99 247.249 197.797 247.25H115.67C113.476 247.249 111.372 246.379 109.818 244.83C108.265 243.281 107.389 241.179 107.382 238.985V178.893C107.38 177.808 107.592 176.733 108.006 175.731C108.42 174.728 109.027 173.817 109.793 173.049C110.56 172.282 111.47 171.673 112.472 171.257C113.474 170.842 114.548 170.628 115.632 170.628H197.797Z" stroke="#101828" stroke-width="1.5" stroke-linecap="round" stroke-linejoin="round"/>
<path d="M209.197 178.893V238.933C209.196 241.124 208.325 243.226 206.775 244.775C205.225 246.325 203.124 247.196 200.932 247.198H197.797C199.989 247.196 202.09 246.325 203.64 244.775C205.19 243.226 206.061 241.124 206.062 238.933V178.893C206.061 176.701 205.19 174.6 203.64 173.05C202.09 171.5 199.989 170.629 197.797 170.628H200.932C203.124 170.629 205.225 171.5 206.775 173.05C208.325 174.6 209.196 176.701 209.197 178.893Z" stroke="#101828" stroke-width="1.5" stroke-linecap="round" stroke-linejoin="round"/>
<path d="M274.75 175C278.25 172.42 280.75 178.382 274.227 181.365C273.32 181.78 270.522 190.912 273.325 195.865C268.85 197.337 263.445 198.215 259.597 195.485C261.63 193.301 262.837 190.478 263.015 187.5C250.665 187.69 262.445 169.022 262.682 169.022C268.72 160.58 272.79 169.462 272.475 174.752C272.382 176.315 273.477 175.932 274.75 175Z" stroke="#101828" stroke-width="1.5" stroke-linecap="round" stroke-linejoin="round"/>
<path d="M304.31 313.875C307.465 311.51 309.985 308.4 311.643 304.822C313.303 301.245 314.045 297.31 313.81 293.375C313.638 291.12 313.308 288.885 312.828 286.69" stroke="#101828" stroke-width="1.5" stroke-linecap="round" stroke-linejoin="round"/>
<path d="M306.81 271.75C308.1 273.853 309.223 276.045 310.173 278.308" stroke="#101828" stroke-width="1.5" stroke-linecap="round" stroke-linejoin="round"/>
<path d="M362.29 276.03C362.29 276.635 362.05 277.215 361.623 277.642C361.195 278.07 360.615 278.31 360.01 278.31H342.91C342.305 278.31 341.725 278.07 341.298 277.642C340.87 277.215 340.63 276.635 340.63 276.03V250.75C340.63 250.145 340.87 249.565 341.298 249.138C341.725 248.71 342.305 248.47 342.91 248.47H360C360.3 248.47 360.595 248.529 360.873 248.643C361.15 248.758 361.4 248.926 361.613 249.138C361.825 249.349 361.993 249.601 362.108 249.877C362.22 250.155 362.28 250.45 362.28 250.75L362.29 276.03Z" stroke="#101828" stroke-width="1.5" stroke-linecap="round" stroke-linejoin="round"/>
<path d="M412.45 272.372C412.637 272.377 412.815 272.448 412.95 272.568C413.082 272.688 413.157 272.85 413.162 273.023V277.655C413.157 277.827 413.082 277.99 412.95 278.11C412.815 278.23 412.637 278.3 412.45 278.305H369.463C369.275 278.3 369.098 278.23 368.963 278.11C368.83 277.99 368.755 277.827 368.75 277.655V273.023C368.755 272.85 368.83 272.688 368.963 272.568C369.098 272.448 369.275 272.377 369.463 272.372H412.45Z" stroke="#101828" stroke-width="1.5" stroke-linecap="round" stroke-linejoin="round"/>
<path d="M264.392 327.805V317.213" stroke="#101828" stroke-width="1.5" stroke-linecap="round" stroke-linejoin="round"/>
<path d="M357.5 128.25L334.368 134.568C333.955 134.679 333.578 134.897 333.275 135.2C332.973 135.504 332.755 135.881 332.643 136.295C332.533 136.709 332.533 137.145 332.643 137.558C332.755 137.972 332.973 138.349 333.275 138.652L354.08 159.268C354.383 159.57 354.76 159.788 355.175 159.899C355.588 160.01 356.025 160.01 356.438 159.899C356.853 159.789 357.23 159.571 357.533 159.269C357.835 158.966 358.053 158.589 358.165 158.175L364.34 134.615L357.5 128.25Z" stroke="#101828" stroke-width="1.5" stroke-linejoin="round"/>
</svg>
