<svg width="148" height="32" viewBox="0 0 148 32" fill="none" xmlns="http://www.w3.org/2000/svg">
<g clip-path="url(#clip0_80_7423)">
<path d="M0.75 3.33335V30.3333C0.75 31.2538 1.4962 32 2.41667 32H5.74998C6.67046 32 7.41665 31.2538 7.41665 30.3333V26.6667V26.6664V20.7482C7.41993 20.7521 7.42321 20.756 7.42653 20.7599L7.44666 8.66334C7.4485 7.56008 8.3434 6.66665 9.44666 6.66665H15.4167L20.75 12V23.4679C24.5018 21.452 27.0833 17.2383 27.0833 12.3666C27.0833 9.06781 25.8996 6.07068 23.9704 3.85335C22.1403 1.50806 19.2873 0 16.0819 0H4.08335C2.24239 0 0.75 1.49239 0.75 3.33335Z" fill="#155EEF"/>
<path d="M15.4167 11.4597V6.66669L20.7501 12H15.9571C15.6587 12 15.4167 11.7581 15.4167 11.4597Z" fill="#528BFF"/>
<path d="M17.6166 14.6667H10.5499C10.2554 14.6667 10.0166 14.9055 10.0166 15.2C10.0166 15.4946 10.2554 15.7334 10.5499 15.7334H17.6166C17.9111 15.7334 18.1499 15.4946 18.1499 15.2C18.1499 14.9055 17.9111 14.6667 17.6166 14.6667Z" fill="#528BFF"/>
<path d="M17.6166 19.0667H10.5499C10.2554 19.0667 10.0166 19.3055 10.0166 19.6C10.0166 19.8946 10.2554 20.1334 10.5499 20.1334H17.6166C17.9111 20.1334 18.1499 19.8946 18.1499 19.6C18.1499 19.3055 17.9111 19.0667 17.6166 19.0667Z" fill="#528BFF"/>
<path d="M17.6166 16.8665H10.5499C10.2554 16.8665 10.0166 17.1053 10.0166 17.3998C10.0166 17.6944 10.2554 17.9332 10.5499 17.9332H17.6166C17.9111 17.9332 18.1499 17.6944 18.1499 17.3998C18.1499 17.1053 17.9111 16.8665 17.6166 16.8665Z" fill="#528BFF"/>
<path d="M34.3532 8.87333C34.4265 8.87333 34.6299 8.87333 34.9632 8.87333C35.3032 8.87333 35.6999 8.87333 36.1532 8.87333C36.6132 8.87333 37.0699 8.87666 37.5232 8.88333C37.9832 8.88333 38.3665 8.88666 38.6732 8.89333C40.4265 8.93333 41.8565 9.24666 42.9632 9.83333C44.0699 10.42 44.8799 11.24 45.3932 12.2933C45.9132 13.3467 46.1732 14.5933 46.1732 16.0333C46.1732 17.5333 45.8999 18.83 45.3532 19.9233C44.8065 21.01 43.9699 21.85 42.8432 22.4433C41.7232 23.0367 40.2999 23.3333 38.5732 23.3333H34.3532V8.87333ZM37.2932 11.2333V20.9733H38.6332C39.4599 20.9733 40.2099 20.8133 40.8832 20.4933C41.5632 20.1733 42.1065 19.65 42.5132 18.9233C42.9199 18.1967 43.1232 17.2267 43.1232 16.0133C43.1232 14.8867 42.9432 13.9733 42.5832 13.2733C42.2232 12.5667 41.7099 12.05 41.0432 11.7233C40.3765 11.3967 39.5865 11.2333 38.6732 11.2333H37.2932Z" fill="#101828"/>
<path d="M50.9177 12.9933V23.3333H48.1277V12.9933H50.9177ZM50.9477 8.88333V11.5133H48.1077V8.88333H50.9477Z" fill="#101828"/>
<path d="M57.8756 26.7533C56.0356 26.7533 54.6356 26.52 53.6756 26.0533C52.7222 25.5867 52.2456 24.9733 52.2456 24.2133C52.2456 23.86 52.3389 23.5633 52.5256 23.3233C52.7122 23.0833 52.9289 22.8933 53.1756 22.7533C53.4289 22.6067 53.6589 22.4967 53.8656 22.4233C54.0789 22.3433 54.2089 22.29 54.2556 22.2633C54.1489 22.2033 53.9956 22.1167 53.7956 22.0033C53.5956 21.8833 53.4089 21.7233 53.2356 21.5233C53.0689 21.3167 52.9856 21.05 52.9856 20.7233C52.9856 20.3567 53.1589 20.0167 53.5056 19.7033C53.8589 19.39 54.3922 19.1733 55.1056 19.0533C54.4256 18.7333 53.9089 18.3 53.5556 17.7533C53.2022 17.2067 53.0256 16.6467 53.0256 16.0733C53.0256 15.3933 53.2389 14.81 53.6656 14.3233C54.0922 13.8367 54.6722 13.4667 55.4056 13.2133C56.1456 12.96 56.9822 12.8333 57.9156 12.8333C58.6289 12.8333 59.2122 12.91 59.6656 13.0633C60.1189 13.21 60.5389 13.4033 60.9256 13.6433C61.0789 13.5833 61.2822 13.5067 61.5356 13.4133C61.7889 13.3133 62.0622 13.2067 62.3556 13.0933C62.6489 12.9733 62.9356 12.8567 63.2156 12.7433C63.4956 12.6233 63.7456 12.5167 63.9656 12.4233L63.9556 14.6833L62.1656 14.9733C62.2389 15.1533 62.2956 15.3467 62.3356 15.5533C62.3756 15.76 62.3956 15.93 62.3956 16.0633C62.3956 16.6633 62.2189 17.2233 61.8656 17.7433C61.5189 18.2633 60.9956 18.6833 60.2956 19.0033C59.6022 19.3233 58.7422 19.4833 57.7156 19.4833C57.5889 19.4833 57.4189 19.48 57.2056 19.4733C56.9989 19.4667 56.8289 19.4567 56.6956 19.4433C56.3022 19.4633 56.0322 19.5133 55.8856 19.5933C55.7389 19.6733 55.6656 19.7667 55.6656 19.8733C55.6656 20.0333 55.8156 20.14 56.1156 20.1933C56.4156 20.24 56.8689 20.2833 57.4756 20.3233C57.6889 20.3367 57.9856 20.3533 58.3656 20.3733C58.7456 20.3933 59.1656 20.42 59.6256 20.4533C60.8922 20.54 61.8356 20.8533 62.4556 21.3933C63.0822 21.9267 63.3956 22.6 63.3956 23.4133C63.3956 24.38 62.9356 25.1767 62.0156 25.8033C61.1022 26.4367 59.7222 26.7533 57.8756 26.7533ZM58.3456 25.1233C59.1589 25.1233 59.7389 25.0233 60.0856 24.8233C60.4322 24.6233 60.6056 24.3367 60.6056 23.9633C60.6056 23.65 60.4722 23.3967 60.2056 23.2033C59.9389 23.0033 59.5489 22.8867 59.0356 22.8533L56.6656 22.6933C56.3589 22.68 56.0856 22.7267 55.8456 22.8333C55.6122 22.94 55.4289 23.0867 55.2956 23.2733C55.1689 23.46 55.1056 23.66 55.1056 23.8733C55.1056 24.3067 55.3689 24.6233 55.8956 24.8233C56.4222 25.0233 57.2389 25.1233 58.3456 25.1233ZM57.7956 17.8533C58.3489 17.8533 58.7922 17.7033 59.1256 17.4033C59.4656 17.0967 59.6356 16.6833 59.6356 16.1633C59.6356 15.6233 59.4656 15.19 59.1256 14.8633C58.7922 14.5367 58.3489 14.3733 57.7956 14.3733C57.2489 14.3733 56.8022 14.5367 56.4556 14.8633C56.1156 15.19 55.9456 15.6233 55.9456 16.1633C55.9456 16.6767 56.1089 17.0867 56.4356 17.3933C56.7689 17.7 57.2222 17.8533 57.7956 17.8533Z" fill="#101828"/>
<path d="M68.1842 12.9933V23.3333H65.3942V12.9933H68.1842ZM68.2142 8.88333V11.5133H65.3742V8.88333H68.2142Z" fill="#101828"/>
<path d="M76.7301 15.0233H74.4301L74.4501 20.5333C74.4501 20.7867 74.4801 20.9767 74.5401 21.1033C74.6068 21.2233 74.7068 21.3033 74.8401 21.3433C74.9801 21.3767 75.1568 21.3933 75.3701 21.3933H76.7601V23.1933C76.6268 23.2533 76.4168 23.31 76.1301 23.3633C75.8501 23.4167 75.4568 23.4433 74.9501 23.4433C74.0434 23.4433 73.3401 23.3267 72.8401 23.0933C72.3468 22.86 72.0034 22.5333 71.8101 22.1133C71.6168 21.6933 71.5201 21.2067 71.5201 20.6533V15.0233H69.8401V12.9933H71.6201L72.3501 9.87333H74.4301V12.9833H76.7301V15.0233Z" fill="#101828"/>
<path d="M81.4481 23.5333C80.7881 23.5333 80.1947 23.41 79.6681 23.1633C79.1414 22.9167 78.7247 22.56 78.4181 22.0933C78.1114 21.62 77.9581 21.0467 77.9581 20.3733C77.9581 19.24 78.3814 18.38 79.2281 17.7933C80.0747 17.2 81.4114 16.8933 83.2381 16.8733L84.5281 16.8533V16.2333C84.5281 15.76 84.3881 15.3967 84.1081 15.1433C83.8347 14.8833 83.4081 14.7567 82.8281 14.7633C82.4014 14.77 81.9947 14.87 81.6081 15.0633C81.2281 15.2567 80.9681 15.5933 80.8281 16.0733H78.3981C78.4381 15.3267 78.6547 14.7133 79.0481 14.2333C79.4414 13.7467 79.9747 13.3867 80.6481 13.1533C81.3281 12.9133 82.0981 12.7933 82.9581 12.7933C84.0181 12.7933 84.8681 12.9267 85.5081 13.1933C86.1481 13.4533 86.6114 13.83 86.8981 14.3233C87.1847 14.81 87.3281 15.39 87.3281 16.0633V23.3333H84.8881L84.6481 21.5533C84.2947 22.3 83.8514 22.8167 83.3181 23.1033C82.7914 23.39 82.1681 23.5333 81.4481 23.5333ZM82.4281 21.6133C82.6947 21.6133 82.9514 21.5667 83.1981 21.4733C83.4514 21.3733 83.6747 21.2433 83.8681 21.0833C84.0681 20.9167 84.2281 20.73 84.3481 20.5233C84.4681 20.3167 84.5281 20.1033 84.5281 19.8833V18.3533L83.4781 18.3733C82.9914 18.38 82.5381 18.44 82.1181 18.5533C81.6981 18.66 81.3581 18.8367 81.0981 19.0833C80.8447 19.33 80.7181 19.6633 80.7181 20.0833C80.7181 20.5633 80.8847 20.94 81.2181 21.2133C81.5514 21.48 81.9547 21.6133 82.4281 21.6133Z" fill="#101828"/>
<path d="M92.8129 23.5133C92.0529 23.5133 91.4496 23.4233 91.0029 23.2433C90.5562 23.0633 90.2262 22.8267 90.0129 22.5333C89.7996 22.2333 89.6629 21.9033 89.6029 21.5433C89.5429 21.1767 89.5129 20.8067 89.5129 20.4333V8.47333H92.3729V20.0733C92.3729 20.4533 92.4529 20.7633 92.6129 21.0033C92.7796 21.2367 93.0896 21.38 93.5429 21.4333L94.0329 21.4633V23.2633C93.8329 23.33 93.6296 23.3867 93.4229 23.4333C93.2162 23.4867 93.0129 23.5133 92.8129 23.5133Z" fill="#101828"/>
<path d="M96.8444 23.3333V8.87327H102.164C103.218 8.87327 104.161 9.0566 104.994 9.42327C105.828 9.78327 106.484 10.3166 106.964 11.0233C107.451 11.7299 107.694 12.5933 107.694 13.6133C107.694 14.5733 107.481 15.3933 107.054 16.0733C106.628 16.7533 106.028 17.2733 105.254 17.6333C104.488 17.9933 103.584 18.1733 102.544 18.1733H99.7844V23.3333H96.8444ZM99.7544 15.9133H102.464C103.198 15.9133 103.798 15.6799 104.264 15.2133C104.731 14.7399 104.964 14.1566 104.964 13.4633C104.964 12.7433 104.718 12.1733 104.224 11.7533C103.731 11.3266 103.131 11.1133 102.424 11.1133H99.7544V15.9133Z" fill="#155EEF"/>
<path d="M111.848 23.5333C111.188 23.5333 110.595 23.4099 110.068 23.1633C109.541 22.9166 109.125 22.5599 108.818 22.0933C108.511 21.6199 108.358 21.0466 108.358 20.3733C108.358 19.2399 108.781 18.3799 109.628 17.7933C110.475 17.1999 111.811 16.8933 113.638 16.8733L114.928 16.8533V16.2333C114.928 15.7599 114.788 15.3966 114.508 15.1433C114.235 14.8833 113.808 14.7566 113.228 14.7633C112.801 14.7699 112.395 14.8699 112.008 15.0633C111.628 15.2566 111.368 15.5933 111.228 16.0733H108.798C108.838 15.3266 109.055 14.7133 109.448 14.2333C109.841 13.7466 110.375 13.3866 111.048 13.1533C111.728 12.9133 112.498 12.7933 113.358 12.7933C114.418 12.7933 115.268 12.9266 115.908 13.1933C116.548 13.4533 117.011 13.8299 117.298 14.3233C117.585 14.8099 117.728 15.3899 117.728 16.0633V23.3333H115.288L115.048 21.5533C114.695 22.2999 114.251 22.8166 113.718 23.1033C113.191 23.3899 112.568 23.5333 111.848 23.5333ZM112.828 21.6133C113.095 21.6133 113.351 21.5666 113.598 21.4733C113.851 21.3733 114.075 21.2433 114.268 21.0833C114.468 20.9166 114.628 20.7299 114.748 20.5233C114.868 20.3166 114.928 20.1033 114.928 19.8833V18.3533L113.878 18.3733C113.391 18.3799 112.938 18.4399 112.518 18.5533C112.098 18.6599 111.758 18.8366 111.498 19.0833C111.245 19.3299 111.118 19.6633 111.118 20.0833C111.118 20.5633 111.285 20.9399 111.618 21.2133C111.951 21.4799 112.355 21.6133 112.828 21.6133Z" fill="#155EEF"/>
<path d="M119.913 23.3333V8.47327H122.813V14.4833C122.979 14.2433 123.189 14.0066 123.443 13.7733C123.696 13.5333 124.013 13.3333 124.393 13.1733C124.773 13.0133 125.236 12.9333 125.783 12.9333C126.443 12.9333 127.043 13.0633 127.583 13.3233C128.129 13.5766 128.566 13.9466 128.893 14.4333C129.226 14.9199 129.393 15.5133 129.393 16.2133V23.3333H126.463V16.6433C126.463 16.1766 126.293 15.8199 125.953 15.5733C125.619 15.3199 125.213 15.1933 124.733 15.1933C124.419 15.1933 124.116 15.2499 123.823 15.3633C123.529 15.4766 123.289 15.6499 123.103 15.8833C122.923 16.1099 122.833 16.3933 122.833 16.7333V23.3333H119.913Z" fill="#155EEF"/>
<path d="M134.29 23.5333C133.63 23.5333 133.037 23.4099 132.51 23.1633C131.983 22.9166 131.567 22.5599 131.26 22.0933C130.953 21.6199 130.8 21.0466 130.8 20.3733C130.8 19.2399 131.223 18.3799 132.07 17.7933C132.917 17.1999 134.253 16.8933 136.08 16.8733L137.37 16.8533V16.2333C137.37 15.7599 137.23 15.3966 136.95 15.1433C136.677 14.8833 136.25 14.7566 135.67 14.7633C135.243 14.7699 134.837 14.8699 134.45 15.0633C134.07 15.2566 133.81 15.5933 133.67 16.0733H131.24C131.28 15.3266 131.497 14.7133 131.89 14.2333C132.283 13.7466 132.817 13.3866 133.49 13.1533C134.17 12.9133 134.94 12.7933 135.8 12.7933C136.86 12.7933 137.71 12.9266 138.35 13.1933C138.99 13.4533 139.453 13.8299 139.74 14.3233C140.027 14.8099 140.17 15.3899 140.17 16.0633V23.3333H137.73L137.49 21.5533C137.137 22.2999 136.693 22.8166 136.16 23.1033C135.633 23.3899 135.01 23.5333 134.29 23.5333ZM135.27 21.6133C135.537 21.6133 135.793 21.5666 136.04 21.4733C136.293 21.3733 136.517 21.2433 136.71 21.0833C136.91 20.9166 137.07 20.7299 137.19 20.5233C137.31 20.3166 137.37 20.1033 137.37 19.8833V18.3533L136.32 18.3733C135.833 18.3799 135.38 18.4399 134.96 18.5533C134.54 18.6599 134.2 18.8366 133.94 19.0833C133.687 19.3299 133.56 19.6633 133.56 20.0833C133.56 20.5633 133.727 20.9399 134.06 21.2133C134.393 21.4799 134.797 21.6133 135.27 21.6133Z" fill="#155EEF"/>
<path d="M145.655 23.5133C144.895 23.5133 144.292 23.4233 143.845 23.2433C143.398 23.0633 143.068 22.8266 142.855 22.5333C142.642 22.2333 142.505 21.9033 142.445 21.5433C142.385 21.1766 142.355 20.8066 142.355 20.4333V8.47327H145.215V20.0733C145.215 20.4533 145.295 20.7633 145.455 21.0033C145.622 21.2366 145.932 21.3799 146.385 21.4333L146.875 21.4633V23.2633C146.675 23.3299 146.472 23.3866 146.265 23.4333C146.058 23.4866 145.855 23.5133 145.655 23.5133Z" fill="#155EEF"/>
</g>
<defs>
<clipPath id="clip0_80_7423">
<rect width="147" height="32" fill="white" transform="translate(0.75)"/>
</clipPath>
</defs>
</svg>
