<svg width="400" height="400" viewBox="0 0 400 400" fill="none" xmlns="http://www.w3.org/2000/svg">
<path d="M40 204.384C40 246.819 56.8571 287.515 86.8629 317.521C116.869 347.527 157.565 364.384 200 364.384C242.435 364.384 283.131 347.527 313.137 317.521C343.143 287.515 360 246.819 360 204.384C360 161.949 343.143 121.253 313.137 91.2469C283.131 61.2411 242.435 44.384 200 44.384C157.565 44.384 116.869 61.2411 86.8629 91.2469C56.8571 121.253 40 161.949 40 204.384Z" fill="#D1E0FF"/>
<path d="M120.448 315.72C120.448 316.771 122.517 317.811 126.538 318.781C130.558 319.752 136.451 320.634 143.879 321.377C151.308 322.12 160.127 322.709 169.833 323.111C179.539 323.513 189.942 323.72 200.448 323.72C210.954 323.72 221.357 323.513 231.063 323.111C240.769 322.709 249.588 322.12 257.017 321.377C264.445 320.634 270.338 319.752 274.358 318.781C278.379 317.811 280.448 316.771 280.448 315.72C280.448 314.669 278.379 313.629 274.358 312.659C270.338 311.688 264.445 310.806 257.017 310.063C249.588 309.32 240.769 308.731 231.063 308.329C221.357 307.927 210.954 307.72 200.448 307.72C189.942 307.72 179.539 307.927 169.833 308.329C160.127 308.731 151.308 309.32 143.879 310.063C136.451 310.806 130.558 311.688 126.538 312.659C122.517 313.629 120.448 314.669 120.448 315.72Z" fill="#84ADFF"/>
<path d="M144.612 245.388L134.8 204.556L126.468 156.956C126.416 156.247 126.618 155.542 127.038 154.968C127.458 154.394 128.067 153.988 128.759 153.822C129.45 153.655 130.178 153.74 130.813 154.061C131.447 154.381 131.948 154.917 132.224 155.572L146.468 201.768L156.28 242.58L144.612 245.388Z" fill="#84ADFF" stroke="#101828" stroke-width="4" stroke-linecap="round" stroke-linejoin="round"/>
<path d="M252.284 245.388L262.108 204.556L270.44 156.956C270.492 156.247 270.289 155.542 269.87 154.968C269.45 154.394 268.841 153.988 268.149 153.822C267.458 153.655 266.73 153.74 266.095 154.061C265.461 154.381 264.96 154.917 264.684 155.572L250.444 201.768L240.616 242.58L252.284 245.388Z" fill="#84ADFF" stroke="#101828" stroke-width="4" stroke-linecap="round" stroke-linejoin="round"/>
<path d="M286.448 301.72H110.448V241.72C110.448 239.598 111.291 237.563 112.791 236.063C114.291 234.563 116.326 233.72 118.448 233.72H278.448C280.57 233.72 282.605 234.563 284.105 236.063C285.605 237.563 286.448 239.598 286.448 241.72V301.72Z" fill="white"/>
<path d="M286.448 301.72H110.448V241.72C110.448 239.598 111.291 237.563 112.791 236.063C114.291 234.563 116.326 233.72 118.448 233.72H278.448C280.57 233.72 282.605 234.563 284.105 236.063C285.605 237.563 286.448 239.598 286.448 241.72V301.72Z" stroke="#101828" stroke-width="4" stroke-linecap="round" stroke-linejoin="round"/>
<path d="M102.448 245.72H294.448V301.72H102.448V245.72Z" fill="#84ADFF" stroke="#101828" stroke-width="4" stroke-linecap="round" stroke-linejoin="round"/>
<path d="M274.448 265.72C274.448 264.659 274.027 263.642 273.276 262.892C272.526 262.141 271.509 261.72 270.448 261.72H126.448C125.387 261.72 124.37 262.141 123.62 262.892C122.869 263.642 122.448 264.659 122.448 265.72V301.72H274.448V265.72Z" fill="white" stroke="#101828" stroke-width="4" stroke-linecap="round" stroke-linejoin="round"/>
<path d="M239.328 280.156C239.328 282.691 240.335 285.123 242.128 286.916C243.921 288.709 246.353 289.716 248.888 289.716C251.423 289.716 253.855 288.709 255.648 286.916C257.441 285.123 258.448 282.691 258.448 280.156C258.448 277.62 257.441 275.189 255.648 273.396C253.855 271.603 251.423 270.596 248.888 270.596C246.353 270.596 243.921 271.603 242.128 273.396C240.335 275.189 239.328 277.62 239.328 280.156Z" fill="#84ADFF" stroke="#101828" stroke-width="4" stroke-linecap="round" stroke-linejoin="round"/>
<path d="M207.328 280.156C207.328 282.691 208.335 285.123 210.128 286.916C211.921 288.709 214.353 289.716 216.888 289.716C219.423 289.716 221.855 288.709 223.648 286.916C225.441 285.123 226.448 282.691 226.448 280.156C226.448 277.62 225.441 275.189 223.648 273.396C221.855 271.603 219.423 270.596 216.888 270.596C214.353 270.596 211.921 271.603 210.128 273.396C208.335 275.189 207.328 277.62 207.328 280.156Z" fill="#84ADFF" stroke="#101828" stroke-width="4" stroke-linecap="round" stroke-linejoin="round"/>
<path d="M138.448 309.72C138.448 310.781 138.027 311.798 137.276 312.548C136.526 313.299 135.509 313.72 134.448 313.72H118.448C117.387 313.72 116.37 313.299 115.62 312.548C114.869 311.798 114.448 310.781 114.448 309.72V301.72H138.448V309.72Z" fill="#84ADFF" stroke="#101828" stroke-width="4" stroke-linecap="round" stroke-linejoin="round"/>
<path d="M278.448 313.72H262.448C261.387 313.72 260.37 313.299 259.62 312.548C258.869 311.798 258.448 310.781 258.448 309.72V301.72H282.448V309.72C282.448 310.781 282.027 311.798 281.276 312.548C280.526 313.299 279.509 313.72 278.448 313.72Z" fill="#84ADFF" stroke="#101828" stroke-width="4" stroke-linecap="round" stroke-linejoin="round"/>
<path d="M134.448 273.72H142.448V289.72H134.448V273.72Z" fill="#84ADFF" stroke="#101828" stroke-width="4" stroke-linecap="round" stroke-linejoin="round"/>
<path d="M150.448 273.72H158.448V289.72H150.448V273.72Z" fill="#84ADFF" stroke="#101828" stroke-width="4" stroke-linecap="round" stroke-linejoin="round"/>
<path d="M166.448 273.72H174.448V289.72H166.448V273.72Z" fill="#84ADFF" stroke="#101828" stroke-width="4" stroke-linecap="round" stroke-linejoin="round"/>
<path d="M268.936 106.432C267.679 106.433 266.433 106.187 265.271 105.706C264.109 105.226 263.053 104.521 262.164 103.632C245.68 87.148 223.322 77.8874 200.01 77.8874C176.698 77.8874 154.34 87.148 137.856 103.632C136.056 105.414 133.624 106.411 131.092 106.404C128.559 106.398 126.132 105.389 124.341 103.599C122.551 101.808 121.542 99.3807 121.536 96.8482C121.529 94.3156 122.526 91.8836 124.308 90.084C144.386 70.0079 171.617 58.7294 200.01 58.7294C228.403 58.7294 255.634 70.0079 275.712 90.084C277.043 91.4275 277.947 93.1341 278.312 94.9897C278.676 96.8454 278.485 98.7673 277.761 100.514C277.037 102.261 275.813 103.756 274.243 104.81C272.673 105.864 270.827 106.431 268.936 106.44V106.432Z" fill="white" stroke="#101828" stroke-width="4" stroke-linecap="round" stroke-linejoin="round"/>
<path d="M244.96 130.4C243.702 130.403 242.457 130.157 241.294 129.676C240.132 129.196 239.076 128.49 238.188 127.6C228.061 117.477 214.329 111.79 200.01 111.79C185.691 111.79 171.958 117.477 161.832 127.6C160.948 128.515 159.891 129.245 158.721 129.748C157.552 130.25 156.295 130.514 155.022 130.525C153.75 130.536 152.488 130.293 151.31 129.811C150.133 129.328 149.063 128.616 148.164 127.716C147.264 126.816 146.553 125.746 146.072 124.568C145.591 123.39 145.349 122.128 145.361 120.855C145.373 119.583 145.639 118.325 146.142 117.157C146.645 115.988 147.376 114.931 148.292 114.048C162.009 100.332 180.612 92.6273 200.01 92.6273C219.408 92.6273 238.011 100.332 251.728 114.048C253.067 115.388 253.978 117.094 254.348 118.951C254.717 120.809 254.528 122.734 253.804 124.484C253.079 126.234 251.853 127.729 250.279 128.783C248.705 129.836 246.854 130.398 244.96 130.4Z" fill="white" stroke="#101828" stroke-width="4" stroke-linecap="round" stroke-linejoin="round"/>
<path d="M179.032 154.4C177.141 154.394 175.293 153.83 173.721 152.778C172.149 151.726 170.923 150.233 170.196 148.487C169.47 146.741 169.276 144.818 169.638 142.962C170 141.105 170.902 139.397 172.232 138.052C175.876 134.406 180.202 131.513 184.965 129.539C189.727 127.566 194.831 126.55 199.986 126.55C205.141 126.55 210.245 127.566 215.007 129.539C219.77 131.513 224.096 134.406 227.74 138.052C229.521 139.853 230.516 142.285 230.509 144.818C230.501 147.35 229.491 149.777 227.699 151.567C225.907 153.357 223.479 154.364 220.947 154.369C218.414 154.373 215.983 153.375 214.184 151.592C212.32 149.726 210.106 148.247 207.669 147.237C205.233 146.227 202.621 145.708 199.984 145.708C197.347 145.708 194.735 146.227 192.299 147.237C189.862 148.247 187.648 149.726 185.784 151.592C183.994 153.385 181.566 154.395 179.032 154.4Z" fill="white" stroke="#101828" stroke-width="4" stroke-linecap="round" stroke-linejoin="round"/>
<path d="M201.6 183.264C199.439 183.265 197.327 182.625 195.53 181.425C193.733 180.225 192.332 178.519 191.505 176.523C190.677 174.527 190.46 172.331 190.881 170.211C191.302 168.092 192.343 166.145 193.87 164.617C195.398 163.089 197.344 162.048 199.463 161.626C201.583 161.204 203.779 161.42 205.776 162.247C207.772 163.074 209.478 164.474 210.679 166.271C211.879 168.067 212.52 170.179 212.52 172.34C212.517 175.236 211.365 178.012 209.318 180.06C207.271 182.107 204.496 183.26 201.6 183.264Z" fill="white" stroke="#101828" stroke-width="4" stroke-linecap="round" stroke-linejoin="round"/>
<path d="M155.628 178.576C153.768 178.577 151.948 178.036 150.39 177.02C148.832 176.004 147.604 174.556 146.856 172.853C146.107 171.15 145.871 169.266 146.176 167.431C146.481 165.596 147.313 163.89 148.572 162.52L255.144 46.364C256.905 44.6754 259.243 43.7206 261.682 43.6936C264.122 43.6665 266.48 44.5693 268.278 46.2185C270.076 47.8676 271.178 50.1394 271.361 52.5722C271.545 55.005 270.795 57.4163 269.264 59.316L162.688 175.472C161.792 176.452 160.701 177.234 159.485 177.768C158.27 178.303 156.956 178.578 155.628 178.576Z" fill="#84ADFF" stroke="#101828" stroke-width="4" stroke-linecap="round" stroke-linejoin="round"/>
</svg>
