<svg width="400" height="400" viewBox="0 0 400 400" fill="none" xmlns="http://www.w3.org/2000/svg">
<path d="M37.808 200C37.808 242.435 54.6651 283.131 84.6709 313.137C114.677 343.143 155.373 360 197.808 360C240.243 360 280.939 343.143 310.945 313.137C340.951 283.131 357.808 242.435 357.808 200C357.808 157.565 340.951 116.869 310.945 86.8629C280.939 56.8571 240.243 40 197.808 40C155.373 40 114.677 56.8571 84.6709 86.8629C54.6651 116.869 37.808 157.565 37.808 200Z" fill="#D1E0FF"/>
<path d="M35.852 76.436H247.968V235.496H35.852V76.436Z" fill="#84ADFF"/>
<path d="M35.852 76.436H247.968V235.496H35.852V76.436Z" stroke="#101828" stroke-width="4" stroke-linejoin="round"/>
<path d="M235.624 76.436H48.196C46.5733 76.436 44.9665 76.7559 43.4675 77.3775C41.9686 77.9991 40.6069 78.9102 39.4604 80.0585C38.3139 81.2069 37.4051 82.57 36.7859 84.07C36.1667 85.5699 35.8494 87.1773 35.852 88.8V105.8H247.968V88.8C247.971 87.1773 247.653 85.5699 247.034 84.07C246.415 82.57 245.506 81.2069 244.36 80.0585C243.213 78.9102 241.851 77.9991 240.352 77.3775C238.854 76.7559 237.247 76.436 235.624 76.436Z" fill="white"/>
<path d="M235.624 76.436H48.196C46.5733 76.436 44.9665 76.7559 43.4675 77.3775C41.9686 77.9991 40.6069 78.9102 39.4604 80.0585C38.3139 81.2069 37.4051 82.57 36.7859 84.07C36.1667 85.5699 35.8494 87.1773 35.852 88.8V105.816H247.968V88.8C247.971 87.1773 247.653 85.5699 247.034 84.07C246.415 82.57 245.506 81.2069 244.36 80.0585C243.213 78.9102 241.851 77.9991 240.352 77.3775C238.854 76.7559 237.247 76.436 235.624 76.436Z" stroke="#101828" stroke-width="4" stroke-linejoin="round"/>
<path d="M48.196 91.04C48.196 91.8505 48.3556 92.6531 48.6658 93.4019C48.976 94.1507 49.4306 94.8311 50.0037 95.4043C50.5769 95.9774 51.2573 96.432 52.0061 96.7422C52.7549 97.0523 53.5575 97.212 54.368 97.212C55.1785 97.212 55.9811 97.0523 56.7299 96.7422C57.4787 96.432 58.1591 95.9774 58.7323 95.4043C59.3054 94.8311 59.76 94.1507 60.0702 93.4019C60.3804 92.6531 60.54 91.8505 60.54 91.04C60.54 90.2295 60.3804 89.4269 60.0702 88.6781C59.76 87.9292 59.3054 87.2488 58.7323 86.6757C58.1591 86.1026 57.4787 85.648 56.7299 85.3378C55.9811 85.0276 55.1785 84.868 54.368 84.868C53.5575 84.868 52.7549 85.0276 52.0061 85.3378C51.2573 85.648 50.5769 86.1026 50.0037 86.6757C49.4306 87.2488 48.976 87.9292 48.6658 88.6781C48.3556 89.4269 48.196 90.2295 48.196 91.04Z" fill="#84ADFF" stroke="#101828" stroke-width="4" stroke-linejoin="round"/>
<path d="M72.888 91.04C72.888 92.6769 73.5383 94.2468 74.6957 95.4043C75.8532 96.5617 77.4231 97.212 79.06 97.212C80.6969 97.212 82.2668 96.5617 83.4243 95.4043C84.5817 94.2468 85.232 92.6769 85.232 91.04C85.232 89.4031 84.5817 87.8332 83.4243 86.6757C82.2668 85.5182 80.6969 84.868 79.06 84.868C77.4231 84.868 75.8532 85.5182 74.6957 86.6757C73.5383 87.8332 72.888 89.4031 72.888 91.04Z" fill="#84ADFF" stroke="#101828" stroke-width="4" stroke-linejoin="round"/>
<path d="M97.576 91.04C97.576 92.6769 98.2263 94.2468 99.3837 95.4043C100.541 96.5617 102.111 97.212 103.748 97.212C105.385 97.212 106.955 96.5617 108.112 95.4043C109.27 94.2468 109.92 92.6769 109.92 91.04C109.92 89.4031 109.27 87.8332 108.112 86.6757C106.955 85.5182 105.385 84.868 103.748 84.868C102.111 84.868 100.541 85.5182 99.3837 86.6757C98.2263 87.8332 97.576 89.4031 97.576 91.04Z" fill="#84ADFF" stroke="#101828" stroke-width="4" stroke-linejoin="round"/>
<path d="M196.736 341.964C196.736 342.876 198.053 343.779 200.613 344.621C203.173 345.464 206.925 346.229 211.655 346.874C216.385 347.519 222 348.03 228.18 348.379C234.359 348.728 240.983 348.908 247.672 348.908C254.361 348.908 260.985 348.728 267.164 348.379C273.344 348.03 278.959 347.519 283.689 346.874C288.419 346.229 292.171 345.464 294.731 344.621C297.291 343.779 298.608 342.876 298.608 341.964C298.608 341.052 297.291 340.149 294.731 339.307C292.171 338.464 288.419 337.699 283.689 337.054C278.959 336.409 273.344 335.898 267.164 335.549C260.985 335.2 254.361 335.02 247.672 335.02C240.983 335.02 234.359 335.2 228.18 335.549C222 335.898 216.385 336.409 211.655 337.054C206.925 337.699 203.173 338.464 200.613 339.307C198.053 340.149 196.736 341.052 196.736 341.964Z" fill="#84ADFF"/>
<path d="M345.888 233.368C347.581 226.467 347.089 219.21 344.48 212.601C341.87 205.991 337.272 200.356 331.321 196.473C325.37 192.59 318.36 190.651 311.259 190.924C304.159 191.198 297.319 193.671 291.684 198C282.552 187.237 270.336 179.537 256.687 175.941C243.038 172.346 228.614 173.027 215.364 177.894C202.115 182.76 190.679 191.577 182.602 203.153C174.526 214.729 170.198 228.505 170.204 242.62C170.204 242.768 170.204 242.912 170.228 243.06C168.795 242.82 167.348 242.673 165.896 242.62C161.337 242.571 156.814 243.426 152.587 245.137C148.361 246.848 144.516 249.38 141.275 252.586C138.034 255.792 135.461 259.61 133.705 263.817C131.949 268.025 131.045 272.539 131.045 277.098C131.045 281.657 131.949 286.171 133.705 290.379C135.461 294.586 138.034 298.404 141.275 301.61C144.516 304.816 148.361 307.348 152.587 309.059C156.814 310.77 161.337 311.625 165.896 311.576H321.048C330.196 311.591 339.112 308.69 346.499 303.294C353.887 297.898 359.363 290.288 362.132 281.569C364.901 272.849 364.819 263.474 361.898 254.805C358.977 246.135 353.369 238.622 345.888 233.356V233.368Z" fill="white"/>
<path d="M345.888 233.368C347.581 226.467 347.089 219.21 344.48 212.601C341.87 205.991 337.272 200.356 331.321 196.473C325.37 192.59 318.36 190.651 311.259 190.924C304.159 191.198 297.319 193.671 291.684 198C282.552 187.237 270.336 179.537 256.687 175.941C243.038 172.346 228.614 173.027 215.364 177.894C202.115 182.76 190.679 191.577 182.602 203.153C174.526 214.729 170.198 228.505 170.204 242.62C170.204 242.768 170.204 242.912 170.228 243.06C168.795 242.82 167.348 242.673 165.896 242.62C161.337 242.571 156.814 243.426 152.587 245.137C148.361 246.848 144.516 249.38 141.275 252.586C138.034 255.792 135.461 259.61 133.705 263.817C131.949 268.025 131.045 272.539 131.045 277.098C131.045 281.657 131.949 286.171 133.705 290.379C135.461 294.586 138.034 298.404 141.275 301.61C144.516 304.816 148.361 307.348 152.587 309.059C156.814 310.77 161.337 311.625 165.896 311.576H321.048C330.196 311.591 339.112 308.69 346.499 303.294C353.887 297.898 359.363 290.288 362.132 281.569C364.901 272.849 364.819 263.474 361.898 254.805C358.977 246.135 353.369 238.622 345.888 233.356V233.368Z" stroke="#101828" stroke-width="4" stroke-linecap="round" stroke-linejoin="round"/>
<path d="M304.592 278.92C304.672 280.386 304.452 281.852 303.946 283.23C303.44 284.608 302.659 285.868 301.65 286.934C300.641 288 299.425 288.848 298.076 289.428C296.728 290.009 295.276 290.308 293.808 290.308C292.34 290.308 290.888 290.009 289.54 289.428C288.191 288.848 286.975 288 285.966 286.934C284.957 285.868 284.176 284.608 283.67 283.23C283.164 281.852 282.944 280.386 283.024 278.92C283.024 272.964 293.824 251.956 293.824 251.956C293.824 251.956 304.592 272.964 304.592 278.92Z" fill="#84ADFF" stroke="#101828" stroke-width="4" stroke-linecap="round" stroke-linejoin="round"/>
<path d="M211.796 236.86C211.796 238.576 212.478 240.223 213.692 241.436C214.905 242.65 216.552 243.332 218.268 243.332C219.984 243.332 221.631 242.65 222.844 241.436C224.058 240.223 224.74 238.576 224.74 236.86C224.74 235.144 224.058 233.497 222.844 232.284C221.631 231.07 219.984 230.388 218.268 230.388C216.552 230.388 214.905 231.07 213.692 232.284C212.478 233.497 211.796 235.144 211.796 236.86Z" fill="white" stroke="#101828" stroke-width="4" stroke-linecap="round" stroke-linejoin="round"/>
<path d="M270.604 236.86C270.604 238.576 271.286 240.223 272.5 241.436C273.713 242.65 275.36 243.332 277.076 243.332C278.792 243.332 280.439 242.65 281.652 241.436C282.866 240.223 283.548 238.576 283.548 236.86C283.548 235.144 282.866 233.497 281.652 232.284C280.439 231.07 278.792 230.388 277.076 230.388C275.36 230.388 273.713 231.07 272.5 232.284C271.286 233.497 270.604 235.144 270.604 236.86Z" fill="white" stroke="#101828" stroke-width="4" stroke-linecap="round" stroke-linejoin="round"/>
<path d="M227.796 281.832C227.01 281.832 226.234 281.652 225.528 281.305C224.822 280.958 224.205 280.455 223.724 279.832C223.237 279.215 222.899 278.493 222.737 277.723C222.575 276.954 222.594 276.157 222.792 275.396C224.219 269.883 227.437 265 231.94 261.514C236.443 258.028 241.977 256.136 247.672 256.136C253.367 256.136 258.9 258.028 263.404 261.514C267.907 265 271.125 269.883 272.552 275.396C272.75 276.157 272.769 276.953 272.608 277.723C272.447 278.492 272.11 279.214 271.624 279.832C271.142 280.454 270.525 280.958 269.818 281.305C269.111 281.652 268.335 281.832 267.548 281.832C261.004 280.434 254.356 279.575 247.672 279.264C240.988 279.576 234.34 280.435 227.796 281.832Z" fill="#84ADFF" stroke="#101828" stroke-width="4" stroke-linecap="round" stroke-linejoin="round"/>
<path d="M162.116 198.584C160.816 198.588 159.527 198.333 158.326 197.834C157.125 197.336 156.036 196.603 155.12 195.68L141.92 182.48L128.72 195.68C127.801 196.599 126.709 197.328 125.508 197.826C124.307 198.323 123.02 198.579 121.72 198.579C120.42 198.579 119.133 198.323 117.932 197.826C116.731 197.328 115.639 196.599 114.72 195.68C113.801 194.761 113.072 193.669 112.574 192.468C112.077 191.267 111.821 189.98 111.821 188.68C111.821 187.38 112.077 186.093 112.574 184.892C113.072 183.691 113.801 182.599 114.72 181.68L127.92 168.48L114.72 155.28C112.863 153.423 111.821 150.905 111.821 148.28C111.821 145.654 112.863 143.136 114.72 141.28C116.577 139.423 119.094 138.38 121.72 138.38C124.346 138.38 126.863 139.423 128.72 141.28L141.92 154.48L155.12 141.28C156.977 139.423 159.494 138.38 162.12 138.38C164.746 138.38 167.263 139.423 169.12 141.28C170.977 143.136 172.02 145.654 172.02 148.28C172.02 150.905 170.977 153.423 169.12 155.28L155.92 168.48L169.12 181.68C170.503 183.064 171.444 184.826 171.825 186.745C172.206 188.663 172.01 190.652 171.261 192.459C170.512 194.266 169.245 195.81 167.618 196.897C165.992 197.984 164.08 198.564 162.124 198.564L162.116 198.584Z" fill="white" stroke="#101828" stroke-width="4" stroke-linecap="round" stroke-linejoin="round"/>
</svg>
