<svg width="400" height="400" viewBox="0 0 400 400" fill="none" xmlns="http://www.w3.org/2000/svg">
<path d="M200 360C288.366 360 360 288.366 360 200C360 111.634 288.366 40 200 40C111.634 40 40 111.634 40 200C40 288.366 111.634 360 200 360Z" fill="#D1E0FF"/>
<path d="M312.128 82.72C312.564 82.8004 312.974 82.98 313.329 83.2448C313.683 83.51 313.972 83.8532 314.172 84.248C314.372 84.6428 314.478 85.0788 314.483 85.5212C314.487 85.964 314.389 86.4016 314.196 86.8L302.64 110.592C302.361 111.17 301.896 111.637 301.32 111.92C300.745 112.203 300.091 112.285 299.463 112.153C298.835 112.021 298.27 111.682 297.857 111.191C297.444 110.7 297.207 110.085 297.184 109.444L296.204 83.356C296.188 82.9264 296.269 82.4984 296.44 82.104C296.612 81.7096 296.87 81.3588 297.195 81.0772C297.52 80.796 297.904 80.5912 298.319 80.478C298.734 80.3648 299.169 80.3464 299.592 80.424L312.128 82.72Z" fill="#84ADFF" stroke="#101828" stroke-width="4" stroke-linejoin="round"/>
<path d="M253.408 84.4C252.978 84.5044 252.577 84.7068 252.238 84.9916C251.898 85.276 251.629 85.6356 251.452 86.0416C251.274 86.4476 251.193 86.8888 251.215 87.3316C251.236 87.774 251.36 88.2052 251.576 88.592L264.46 111.692C264.772 112.252 265.262 112.691 265.852 112.94C266.442 113.189 267.098 113.233 267.717 113.066C268.335 112.9 268.88 112.531 269.265 112.019C269.65 111.506 269.852 110.88 269.84 110.24L269.344 84.136C269.336 83.706 269.231 83.2836 269.038 82.8996C268.844 82.5152 268.567 82.1796 268.226 81.9172C267.886 81.6544 267.491 81.4716 267.07 81.382C266.649 81.2928 266.214 81.2988 265.796 81.4L253.408 84.4Z" fill="#84ADFF" stroke="#101828" stroke-width="4" stroke-linejoin="round"/>
<path d="M149.9 96.312C149.557 96.0316 149.154 95.8344 148.722 95.7356C148.29 95.6368 147.842 95.6392 147.411 95.7424C146.98 95.846 146.579 96.0476 146.24 96.3316C145.9 96.6156 145.63 96.9744 145.452 97.38L134.82 121.6C134.566 122.186 134.514 122.839 134.673 123.457C134.832 124.075 135.192 124.622 135.696 125.013C136.201 125.404 136.821 125.615 137.459 125.614C138.097 125.614 138.717 125.4 139.22 125.008L159.724 108.848C160.062 108.582 160.337 108.243 160.527 107.857C160.717 107.47 160.817 107.046 160.821 106.616C160.825 106.185 160.732 105.759 160.549 105.37C160.366 104.98 160.098 104.636 159.764 104.364L149.9 96.312Z" fill="#84ADFF" stroke="#101828" stroke-width="4" stroke-linejoin="round"/>
<path d="M100.972 79.032C100.53 79.0172 100.09 79.1048 99.6868 79.288C99.284 79.4712 98.9284 79.7452 98.6488 80.088C98.3688 80.4308 98.172 80.834 98.0732 81.2652C97.9748 81.6968 97.9768 82.1452 98.08 82.576L104.268 108.292C104.418 108.914 104.772 109.469 105.273 109.867C105.775 110.266 106.395 110.485 107.035 110.491C107.676 110.496 108.3 110.288 108.808 109.898C109.316 109.508 109.679 108.96 109.84 108.34L116.4 83.068C116.51 82.6508 116.525 82.2144 116.444 81.7908C116.362 81.3672 116.186 80.9676 115.928 80.6216C115.67 80.2756 115.338 79.9924 114.956 79.7924C114.574 79.5928 114.151 79.4816 113.72 79.468L100.972 79.032Z" fill="#84ADFF" stroke="#101828" stroke-width="4" stroke-linejoin="round"/>
<path d="M123.2 166.224C122.612 153.292 120.3 125.708 109.664 127.264C108.656 127.411 107.686 127.755 106.811 128.277C105.936 128.799 105.172 129.488 104.563 130.306C103.955 131.123 103.513 132.052 103.264 133.04C103.015 134.028 102.964 135.056 103.112 136.064L103.484 138.624C106.228 157.384 100.956 178.192 85.216 180.492L90.936 219.724L92.936 219.432C102.776 217.992 108.428 224.136 126.048 221.56L155.92 217.2C157.73 216.935 159.36 215.961 160.452 214.494C161.544 213.027 162.009 211.186 161.744 209.376C161.479 207.566 160.505 205.936 159.038 204.844C157.571 203.751 155.73 203.287 153.92 203.552L157.332 203.056C159.142 202.791 160.772 201.817 161.864 200.35C162.956 198.883 163.421 197.042 163.156 195.232C162.891 193.422 161.917 191.792 160.45 190.7C158.983 189.607 157.142 189.143 155.332 189.408L158.744 188.912C160.554 188.647 162.184 187.673 163.276 186.206C164.368 184.739 164.833 182.898 164.568 181.088C164.302 179.278 163.329 177.648 161.862 176.556C160.395 175.463 158.554 174.999 156.744 175.264L160.152 174.768C161.962 174.503 163.592 173.529 164.684 172.062C165.776 170.595 166.241 168.754 165.976 166.944C165.71 165.134 164.737 163.504 163.27 162.412C161.803 161.319 159.962 160.855 158.152 161.12L123.2 166.224Z" fill="white"/>
<path d="M116.384 167.22L123.208 166.224" stroke="#101828" stroke-width="4" stroke-linecap="round" stroke-linejoin="round"/>
<path d="M153.924 203.544L150.512 204.044" stroke="#101828" stroke-width="4" stroke-linecap="round" stroke-linejoin="round"/>
<path d="M155.34 189.4L151.932 189.9" stroke="#101828" stroke-width="4" stroke-linecap="round" stroke-linejoin="round"/>
<path d="M156.76 175.256L153.348 175.756" stroke="#101828" stroke-width="4" stroke-linecap="round" stroke-linejoin="round"/>
<path d="M81.02 223.324C81.1112 223.94 81.08 224.568 80.9284 225.172C80.7768 225.776 80.5072 226.344 80.1356 226.844C79.7644 227.343 79.2976 227.765 78.7632 228.084C78.2284 228.403 77.636 228.614 77.02 228.704L47.244 234.032C45.3668 223.41 44.4296 212.643 44.444 201.856C44.4464 194.638 44.8592 187.427 45.68 180.256L70.48 175.692C70.9428 175.622 71.4144 175.644 71.8684 175.758C72.3224 175.87 72.7496 176.072 73.1256 176.35C73.5016 176.628 73.8192 176.978 74.06 177.379C74.3004 177.78 74.4596 178.225 74.528 178.688L81.02 223.324Z" fill="#84ADFF"/>
<path d="M45.672 180.296V180.248L70.472 175.684C70.9344 175.614 71.4064 175.636 71.8604 175.749C72.3144 175.862 72.7416 176.064 73.1176 176.342C73.4936 176.62 73.8112 176.97 74.0516 177.371C74.2924 177.772 74.4516 178.217 74.52 178.68L81.04 223.324C81.1312 223.94 81.1 224.568 80.9484 225.172C80.7964 225.776 80.5272 226.344 80.1556 226.843C79.784 227.343 79.3176 227.764 78.7832 228.084C78.2484 228.403 77.656 228.614 77.04 228.704L47.264 234.032" stroke="#101828" stroke-width="4" stroke-linecap="round" stroke-linejoin="round"/>
<path d="M81.224 224.624L86.748 223.824C87.9932 223.635 89.1128 222.961 89.8624 221.95C90.612 220.938 90.9304 219.67 90.748 218.424L85.392 181.788C85.2044 180.543 84.5312 179.424 83.52 178.674C82.5088 177.924 81.2416 177.606 79.996 177.788L74.472 178.588L81.224 224.624Z" fill="white" stroke="#101828" stroke-width="4" stroke-linecap="round" stroke-linejoin="round"/>
<path d="M123.2 166.224C122.612 153.292 120.3 125.708 109.664 127.264C108.656 127.411 107.686 127.755 106.811 128.277C105.936 128.799 105.172 129.488 104.563 130.306C103.955 131.123 103.513 132.052 103.264 133.04C103.015 134.028 102.964 135.056 103.112 136.064L103.484 138.624C106.228 157.384 100.956 178.192 85.216 180.492L90.936 219.724L92.936 219.432C102.776 217.992 108.428 224.136 126.048 221.56L155.92 217.2C157.73 216.935 159.36 215.961 160.452 214.494C161.544 213.027 162.009 211.186 161.744 209.376C161.479 207.566 160.505 205.936 159.038 204.844C157.571 203.751 155.73 203.287 153.92 203.552L157.332 203.056C159.142 202.791 160.772 201.817 161.864 200.35C162.956 198.883 163.421 197.042 163.156 195.232C162.891 193.422 161.917 191.792 160.45 190.7C158.983 189.607 157.142 189.143 155.332 189.408L158.744 188.912C160.554 188.647 162.184 187.673 163.276 186.206C164.368 184.739 164.833 182.898 164.568 181.088C164.302 179.278 163.329 177.648 161.862 176.556C160.395 175.463 158.554 174.999 156.744 175.264L160.152 174.768C161.962 174.503 163.592 173.529 164.684 172.062C165.776 170.595 166.241 168.754 165.976 166.944C165.71 165.134 164.737 163.504 163.27 162.412C161.803 161.319 159.962 160.855 158.152 161.12L123.2 166.224Z" stroke="#101828" stroke-width="4" stroke-linejoin="round"/>
<path d="M275.784 166.224C276.372 153.292 278.684 125.708 289.32 127.264C290.328 127.411 291.298 127.755 292.173 128.277C293.048 128.799 293.812 129.488 294.42 130.306C295.029 131.123 295.47 132.052 295.719 133.04C295.968 134.028 296.02 135.056 295.872 136.064L295.5 138.624C292.756 157.384 298.028 178.192 313.768 180.492L308.048 219.724L306.048 219.432C296.212 217.992 290.556 224.136 272.936 221.56L243.072 217.2C241.262 216.935 239.632 215.961 238.54 214.494C237.447 213.027 236.983 211.186 237.248 209.376C237.513 207.566 238.486 205.936 239.954 204.844C241.421 203.751 243.262 203.287 245.072 203.552L241.66 203.056C239.85 202.791 238.22 201.817 237.128 200.35C236.035 198.883 235.571 197.042 235.836 195.232C236.101 193.422 237.074 191.792 238.542 190.7C240.009 189.607 241.85 189.143 243.66 189.408L240.248 188.912C238.438 188.647 236.808 187.673 235.716 186.206C234.623 184.739 234.159 182.898 234.424 181.088C234.689 179.278 235.662 177.648 237.13 176.556C238.597 175.463 240.438 174.999 242.248 175.264L238.836 174.768C237.026 174.503 235.396 173.529 234.304 172.062C233.211 170.595 232.747 168.754 233.012 166.944C233.277 165.134 234.25 163.504 235.718 162.412C237.185 161.319 239.026 160.855 240.836 161.12L275.784 166.224Z" fill="white"/>
<path d="M282.608 167.22L275.784 166.224" stroke="#101828" stroke-width="4" stroke-linecap="round" stroke-linejoin="round"/>
<path d="M245.068 203.544L248.48 204.044" stroke="#101828" stroke-width="4" stroke-linecap="round" stroke-linejoin="round"/>
<path d="M243.652 189.4L247.064 189.9" stroke="#101828" stroke-width="4" stroke-linecap="round" stroke-linejoin="round"/>
<path d="M242.236 175.256L245.648 175.756" stroke="#101828" stroke-width="4" stroke-linecap="round" stroke-linejoin="round"/>
<path d="M354.604 200.8C354.608 211.537 353.684 222.254 351.844 232.832L322 228.704C321.38 228.62 320.782 228.413 320.242 228.096C319.702 227.779 319.23 227.359 318.854 226.858C318.477 226.358 318.204 225.788 318.049 225.181C317.894 224.575 317.861 223.943 317.952 223.324L324.464 178.68C324.613 177.742 325.126 176.9 325.893 176.339C326.659 175.778 327.616 175.542 328.556 175.684L353.32 179.06C354.181 186.274 354.61 193.534 354.604 200.8Z" fill="#84ADFF"/>
<path d="M351.844 232.84L322 228.704C321.38 228.62 320.782 228.413 320.242 228.096C319.702 227.779 319.23 227.359 318.854 226.858C318.477 226.358 318.204 225.788 318.049 225.181C317.894 224.575 317.861 223.943 317.952 223.324L324.464 178.68C324.613 177.742 325.126 176.9 325.893 176.339C326.659 175.778 327.616 175.542 328.556 175.684L353.32 179.06" stroke="#101828" stroke-width="4" stroke-linecap="round" stroke-linejoin="round"/>
<path d="M317.772 224.624L312.244 223.824C310.995 223.64 309.871 222.968 309.117 221.956C308.363 220.943 308.042 219.673 308.224 218.424L313.6 181.784C313.788 180.539 314.461 179.42 315.472 178.67C316.484 177.92 317.75 177.602 318.996 177.784L324.524 178.584L317.772 224.624Z" fill="white" stroke="#101828" stroke-width="4" stroke-linecap="round" stroke-linejoin="round"/>
<path d="M275.784 166.224C276.372 153.292 278.684 125.708 289.32 127.264C290.328 127.411 291.298 127.755 292.173 128.277C293.048 128.799 293.812 129.488 294.42 130.306C295.029 131.123 295.47 132.052 295.719 133.04C295.968 134.028 296.02 135.056 295.872 136.064L295.5 138.624C292.756 157.384 298.028 178.192 313.768 180.492L308.048 219.724L306.048 219.432C296.212 217.992 290.556 224.136 272.936 221.56L243.072 217.2C241.262 216.935 239.632 215.961 238.54 214.494C237.447 213.027 236.983 211.186 237.248 209.376C237.513 207.566 238.486 205.936 239.954 204.844C241.421 203.751 243.262 203.287 245.072 203.552L241.66 203.056C239.85 202.791 238.22 201.817 237.128 200.35C236.035 198.883 235.571 197.042 235.836 195.232C236.101 193.422 237.074 191.792 238.542 190.7C240.009 189.607 241.85 189.143 243.66 189.408L240.248 188.912C238.438 188.647 236.808 187.673 235.716 186.206C234.623 184.739 234.159 182.898 234.424 181.088C234.689 179.278 235.662 177.648 237.13 176.556C238.597 175.463 240.438 174.999 242.248 175.264L238.836 174.768C237.026 174.503 235.396 173.529 234.304 172.062C233.211 170.595 232.747 168.754 233.012 166.944C233.277 165.134 234.25 163.504 235.718 162.412C237.185 161.319 239.026 160.855 240.836 161.12L275.784 166.224Z" stroke="#101828" stroke-width="4" stroke-linejoin="round"/>
<path d="M188.276 264.5C189.616 247.132 193.876 210.12 208.136 212.66C210.861 213.147 213.282 214.697 214.865 216.968C216.448 219.239 217.065 222.046 216.58 224.772L215.968 228.2C211.48 253.324 217.692 281.536 238.768 285.296L229.412 337.832L226.716 337.352C213.544 335 205.676 343.024 182.08 338.812L142.112 331.68C139.689 331.248 137.537 329.87 136.129 327.852C134.722 325.832 134.174 323.337 134.606 320.914C135.038 318.491 136.415 316.339 138.434 314.931C140.453 313.524 142.949 312.976 145.372 313.408L140.804 312.608C139.604 312.394 138.458 311.945 137.432 311.288C136.406 310.631 135.518 309.778 134.822 308.778C134.125 307.778 133.632 306.651 133.371 305.46C133.11 304.27 133.086 303.04 133.3 301.84C133.514 300.64 133.963 299.494 134.62 298.468C135.277 297.442 136.13 296.555 137.13 295.858C138.13 295.161 139.257 294.668 140.447 294.407C141.638 294.146 142.868 294.122 144.068 294.336L139.5 293.536C138.3 293.322 137.154 292.874 136.128 292.217C135.101 291.56 134.214 290.707 133.517 289.708C132.82 288.708 132.327 287.581 132.066 286.39C131.804 285.2 131.78 283.97 131.994 282.77C132.208 281.57 132.656 280.424 133.313 279.398C133.97 278.371 134.822 277.484 135.822 276.787C136.822 276.09 137.949 275.597 139.14 275.336C140.33 275.074 141.56 275.05 142.76 275.264L138.192 274.464C135.769 274.032 133.617 272.654 132.209 270.636C130.802 268.616 130.254 266.121 130.686 263.698C131.118 261.275 132.495 259.123 134.514 257.715C136.533 256.308 139.029 255.76 141.452 256.192L188.276 264.5Z" fill="white"/>
<path d="M197.412 266.132L188.276 264.5" stroke="#101828" stroke-width="4" stroke-linecap="round" stroke-linejoin="round"/>
<path d="M145.372 313.408L149.94 314.22" stroke="#101828" stroke-width="4" stroke-linecap="round" stroke-linejoin="round"/>
<path d="M144.068 294.32L148.636 295.132" stroke="#101828" stroke-width="4" stroke-linecap="round" stroke-linejoin="round"/>
<path d="M142.76 275.232L147.328 276.048" stroke="#101828" stroke-width="4" stroke-linecap="round" stroke-linejoin="round"/>
<path d="M328.288 291.852C306.98 318.674 278.523 338.926 246.2 350.272L246.016 350.228C244.811 350.004 243.743 349.312 243.048 348.303C242.352 347.294 242.084 346.05 242.304 344.844L253.3 283.176C253.403 282.574 253.625 281.998 253.952 281.482C254.28 280.967 254.706 280.521 255.207 280.171C255.708 279.822 256.273 279.575 256.87 279.445C257.466 279.315 258.083 279.306 258.684 279.416L328.288 291.852Z" fill="#84ADFF"/>
<path d="M246.248 350.272H246.2L246.016 350.228C244.811 350.004 243.743 349.312 243.048 348.303C242.352 347.294 242.084 346.05 242.304 344.844L253.3 283.176C253.403 282.574 253.625 281.998 253.952 281.482C254.28 280.967 254.706 280.521 255.207 280.171C255.708 279.822 256.273 279.575 256.87 279.445C257.466 279.315 258.083 279.306 258.684 279.416L328.284 291.852" stroke="#101828" stroke-width="4" stroke-linecap="round" stroke-linejoin="round"/>
<path d="M242.28 344.844L233.144 343.2C231.933 342.984 230.858 342.296 230.154 341.287C229.451 340.278 229.177 339.031 229.392 337.82L238.768 285.284C238.986 284.074 239.676 282.999 240.685 282.296C241.694 281.592 242.941 281.318 244.152 281.532L253.288 283.164L242.28 344.844Z" fill="white" stroke="#101828" stroke-width="4" stroke-linecap="round" stroke-linejoin="round"/>
<path d="M188.276 264.5C189.616 247.132 193.876 210.12 208.136 212.66C210.861 213.147 213.282 214.697 214.865 216.968C216.448 219.239 217.065 222.046 216.58 224.772L215.968 228.2C211.48 253.324 217.692 281.536 238.768 285.296L229.412 337.832L226.716 337.352C213.544 335 205.676 343.024 182.08 338.812L142.112 331.68C139.689 331.248 137.537 329.87 136.129 327.852C134.722 325.832 134.174 323.337 134.606 320.914C135.038 318.491 136.415 316.339 138.434 314.931C140.453 313.524 142.949 312.976 145.372 313.408L140.804 312.608C139.604 312.394 138.458 311.945 137.432 311.288C136.406 310.631 135.518 309.778 134.822 308.778C134.125 307.778 133.632 306.651 133.371 305.46C133.11 304.27 133.086 303.04 133.3 301.84C133.514 300.64 133.963 299.494 134.62 298.468C135.277 297.442 136.13 296.555 137.13 295.858C138.13 295.161 139.257 294.668 140.447 294.407C141.638 294.146 142.868 294.122 144.068 294.336L139.5 293.536C138.3 293.322 137.154 292.874 136.128 292.217C135.101 291.56 134.214 290.707 133.517 289.708C132.82 288.708 132.327 287.581 132.066 286.39C131.804 285.2 131.78 283.97 131.994 282.77C132.208 281.57 132.656 280.424 133.313 279.398C133.97 278.371 134.822 277.484 135.822 276.787C136.822 276.09 137.949 275.597 139.14 275.336C140.33 275.074 141.56 275.05 142.76 275.264L138.192 274.464C135.769 274.032 133.617 272.654 132.209 270.636C130.802 268.616 130.254 266.121 130.686 263.698C131.118 261.275 132.495 259.123 134.514 257.715C136.533 256.308 139.029 255.76 141.452 256.192L188.276 264.5Z" stroke="#101828" stroke-width="4" stroke-linejoin="round"/>
</svg>
